<svg width="28" height="32" viewBox="0 0 28 32" fill="none" xmlns="http://www.w3.org/2000/svg">
<g clip-path="url(#clip0_1149_3075)">
<path d="M14 0C12.8937 0 12 0.89375 12 2V3.2C7.43749 4.125 3.99999 8.1625 3.99999 13V14.175C3.99999 17.1125 2.91874 19.95 0.968744 22.15L0.506244 22.6688C-0.0187562 23.2563 -0.143756 24.1 0.174994 24.8188C0.493744 25.5375 1.21249 26 1.99999 26H26C26.7875 26 27.5 25.5375 27.825 24.8188C28.15 24.1 28.0187 23.2563 27.4937 22.6688L27.0312 22.15C25.0812 19.95 24 17.1187 24 14.175V13C24 8.1625 20.5625 4.125 16 3.2V2C16 0.89375 15.1062 0 14 0ZM16.8312 30.8312C17.5812 30.0812 18 29.0625 18 28H14H9.99999C9.99999 29.0625 10.4187 30.0812 11.1687 30.8312C11.9187 31.5812 12.9375 32 14 32C15.0625 32 16.0812 31.5812 16.8312 30.8312Z" fill="black"/>
</g>
<defs>
<clipPath id="clip0_1149_3075">
<rect width="28" height="32" fill="white"/>
</clipPath>
</defs>
</svg>
