<svg width="36" height="40" viewBox="0 0 36 40" fill="none" xmlns="http://www.w3.org/2000/svg">
<g clip-path="url(#clip0_1145_146)">
<path d="M8 0C3.85938 0 0.5 3.35938 0.5 7.5V32.5C0.5 36.6406 3.85938 40 8 40H30.5H33C34.3828 40 35.5 38.8828 35.5 37.5C35.5 36.1172 34.3828 35 33 35V30C34.3828 30 35.5 28.8828 35.5 27.5V2.5C35.5 1.11719 34.3828 0 33 0H30.5H8ZM8 30H28V35H8C6.61719 35 5.5 33.8828 5.5 32.5C5.5 31.1172 6.61719 30 8 30ZM10.5 11.25C10.5 10.5625 11.0625 10 11.75 10H26.75C27.4375 10 28 10.5625 28 11.25C28 11.9375 27.4375 12.5 26.75 12.5H11.75C11.0625 12.5 10.5 11.9375 10.5 11.25ZM11.75 15H26.75C27.4375 15 28 15.5625 28 16.25C28 16.9375 27.4375 17.5 26.75 17.5H11.75C11.0625 17.5 10.5 16.9375 10.5 16.25C10.5 15.5625 11.0625 15 11.75 15Z" fill="black"/>
</g>
<defs>
<clipPath id="clip0_1145_146">
<rect width="35" height="40" fill="white" transform="translate(0.5)"/>
</clipPath>
</defs>
</svg>
