<svg width="30" height="30" viewBox="0 0 30 30" fill="none" xmlns="http://www.w3.org/2000/svg">
<g clip-path="url(#clip0_1204_394)">
<path d="M26.25 15C26.25 8.78906 21.2109 3.75 15 3.75C8.78906 3.75 3.75 8.78906 3.75 15C3.75 21.2109 8.78906 26.25 15 26.25C21.2109 26.25 26.25 21.2109 26.25 15ZM30 15C30 23.2852 23.2852 30 15 30C6.71484 30 0 23.2852 0 15C0 6.71484 6.71484 0 15 0C23.2852 0 30 6.71484 30 15ZM15 19.6875C17.5898 19.6875 19.6875 17.5898 19.6875 15C19.6875 12.4102 17.5898 10.3125 15 10.3125C12.4102 10.3125 10.3125 12.4102 10.3125 15C10.3125 17.5898 12.4102 19.6875 15 19.6875ZM15 23.4375C10.3418 23.4375 6.5625 19.6582 6.5625 15C6.5625 10.3418 10.3418 6.5625 15 6.5625C19.6582 6.5625 23.4375 10.3418 23.4375 15C23.4375 19.6582 19.6582 23.4375 15 23.4375ZM16.875 15C16.875 16.0371 16.0371 16.875 15 16.875C13.9629 16.875 13.125 16.0371 13.125 15C13.125 13.9629 13.9629 13.125 15 13.125C16.0371 13.125 16.875 13.9629 16.875 15Z" fill="black"/>
</g>
<defs>
<clipPath id="clip0_1204_394">
<rect width="30" height="30" fill="white"/>
</clipPath>
</defs>
</svg>
