<svg width="27" height="31" viewBox="0 0 27 31" fill="none" xmlns="http://www.w3.org/2000/svg">
<g clip-path="url(#clip0_1185_324)">
<path d="M8.125 0.5C9.16211 0.5 10 1.33789 10 2.375V4.25H17.5V2.375C17.5 1.33789 18.3379 0.5 19.375 0.5C20.4121 0.5 21.25 1.33789 21.25 2.375V4.25H24.0625C25.6152 4.25 26.875 5.50977 26.875 7.0625V9.875H0.625V7.0625C0.625 5.50977 1.88477 4.25 3.4375 4.25H6.25V2.375C6.25 1.33789 7.08789 0.5 8.125 0.5ZM0.625 11.75H26.875V27.6875C26.875 29.2402 25.6152 30.5 24.0625 30.5H3.4375C1.88477 30.5 0.625 29.2402 0.625 27.6875V11.75ZM4.375 16.4375V18.3125C4.375 18.8281 4.79688 19.25 5.3125 19.25H7.1875C7.70312 19.25 8.125 18.8281 8.125 18.3125V16.4375C8.125 15.9219 7.70312 15.5 7.1875 15.5H5.3125C4.79688 15.5 4.375 15.9219 4.375 16.4375ZM11.875 16.4375V18.3125C11.875 18.8281 12.2969 19.25 12.8125 19.25H14.6875C15.2031 19.25 15.625 18.8281 15.625 18.3125V16.4375C15.625 15.9219 15.2031 15.5 14.6875 15.5H12.8125C12.2969 15.5 11.875 15.9219 11.875 16.4375ZM20.3125 15.5C19.7969 15.5 19.375 15.9219 19.375 16.4375V18.3125C19.375 18.8281 19.7969 19.25 20.3125 19.25H22.1875C22.7031 19.25 23.125 18.8281 23.125 18.3125V16.4375C23.125 15.9219 22.7031 15.5 22.1875 15.5H20.3125ZM4.375 23.9375V25.8125C4.375 26.3281 4.79688 26.75 5.3125 26.75H7.1875C7.70312 26.75 8.125 26.3281 8.125 25.8125V23.9375C8.125 23.4219 7.70312 23 7.1875 23H5.3125C4.79688 23 4.375 23.4219 4.375 23.9375ZM12.8125 23C12.2969 23 11.875 23.4219 11.875 23.9375V25.8125C11.875 26.3281 12.2969 26.75 12.8125 26.75H14.6875C15.2031 26.75 15.625 26.3281 15.625 25.8125V23.9375C15.625 23.4219 15.2031 23 14.6875 23H12.8125ZM19.375 23.9375V25.8125C19.375 26.3281 19.7969 26.75 20.3125 26.75H22.1875C22.7031 26.75 23.125 26.3281 23.125 25.8125V23.9375C23.125 23.4219 22.7031 23 22.1875 23H20.3125C19.7969 23 19.375 23.4219 19.375 23.9375Z" fill="black"/>
</g>
<defs>
<clipPath id="clip0_1185_324">
<rect width="26.25" height="30" fill="white" transform="translate(0.625 0.5)"/>
</clipPath>
</defs>
</svg>
