<svg width="36" height="32" viewBox="0 0 36 32" fill="none" xmlns="http://www.w3.org/2000/svg">
<g clip-path="url(#clip0_1162_1016)">
<path d="M1.5 0C0.66875 0 0 0.66875 0 1.5C0 2.33125 0.66875 3 1.5 3H4.75625L8.525 22.7812C8.6625 23.4875 9.28125 24 10 24H30.5C31.3312 24 32 23.3312 32 22.5C32 21.6688 31.3312 21 30.5 21H11.2437L10.675 18H30.4875C31.3812 18 32.1687 17.4062 32.4125 16.5438L35.7875 4.54375C36.1437 3.26875 35.1875 2 33.8625 2H7.625L7.475 1.21875C7.3375 0.5125 6.71875 0 6 0H1.5ZM11 32C12.6562 32 14 30.6562 14 29C14 27.3438 12.6562 26 11 26C9.34375 26 8 27.3438 8 29C8 30.6562 9.34375 32 11 32ZM32 29C32 27.3438 30.6562 26 29 26C27.3438 26 26 27.3438 26 29C26 30.6562 27.3438 32 29 32C30.6562 32 32 30.6562 32 29Z" fill="black"/>
</g>
<defs>
<clipPath id="clip0_1162_1016">
<rect width="36" height="32" fill="white"/>
</clipPath>
</defs>
</svg>
