<svg width="46" height="40" viewBox="0 0 46 40" fill="none" xmlns="http://www.w3.org/2000/svg">
<g clip-path="url(#clip0_1145_3042)">
<path d="M24.25 18.75V1.29688C24.25 0.59375 24.7969 0 25.5 0C35.1641 0 43 7.83594 43 17.5C43 18.2031 42.4062 18.75 41.7031 18.75H24.25ZM3 21.25C3 11.7734 10.0391 3.92969 19.1719 2.67969C19.8906 2.57812 20.5 3.15625 20.5 3.88281V22.5L32.7266 34.7266C33.25 35.25 33.2109 36.1094 32.6094 36.5312C29.5469 38.7188 25.7969 40 21.75 40C11.3984 40 3 31.6094 3 21.25ZM44.125 22.5C44.8516 22.5 45.4219 23.1094 45.3281 23.8281C44.7266 28.1953 42.625 32.0781 39.5547 34.9453C39.0859 35.3828 38.3516 35.3516 37.8984 34.8906L25.5 22.5H44.125Z" fill="black"/>
</g>
<defs>
<clipPath id="clip0_1145_3042">
<rect width="45" height="40" fill="white" transform="translate(0.5)"/>
</clipPath>
</defs>
</svg>
