<svg width="25" height="25" viewBox="0 0 25 25" fill="none" xmlns="http://www.w3.org/2000/svg">
<g clip-path="url(#clip0_1173_6)">
<path d="M12.5 25C19.4043 25 25 19.4043 25 12.5C25 5.5957 19.4043 0 12.5 0C5.5957 0 0 5.5957 0 12.5C0 19.4043 5.5957 25 12.5 25ZM10.5469 16.4062H11.7188V13.2812H10.5469C9.89746 13.2812 9.375 12.7588 9.375 12.1094C9.375 11.46 9.89746 10.9375 10.5469 10.9375H12.8906C13.54 10.9375 14.0625 11.46 14.0625 12.1094V16.4062H14.4531C15.1025 16.4062 15.625 16.9287 15.625 17.5781C15.625 18.2275 15.1025 18.75 14.4531 18.75H10.5469C9.89746 18.75 9.375 18.2275 9.375 17.5781C9.375 16.9287 9.89746 16.4062 10.5469 16.4062ZM12.5 9.375C11.6357 9.375 10.9375 8.67676 10.9375 7.8125C10.9375 6.94824 11.6357 6.25 12.5 6.25C13.3643 6.25 14.0625 6.94824 14.0625 7.8125C14.0625 8.67676 13.3643 9.375 12.5 9.375Z" fill="#FAFAFA"/>
</g>
<defs>
<clipPath id="clip0_1173_6">
<rect width="25" height="25" fill="white"/>
</clipPath>
</defs>
</svg>
