<svg width="23" height="30" viewBox="0 0 23 30" fill="none" xmlns="http://www.w3.org/2000/svg">
<g clip-path="url(#clip0_1342_10)">
<path d="M11.25 0C8.80078 0 6.71484 1.56445 5.94727 3.75H2.8125C1.25977 3.75 0 5.00977 0 6.5625V27.1875C0 28.7402 1.25977 30 2.8125 30H19.6875C21.2402 30 22.5 28.7402 22.5 27.1875V6.5625C22.5 5.00977 21.2402 3.75 19.6875 3.75H16.5527C15.7852 1.56445 13.6992 0 11.25 0ZM11.25 7.5C10.2129 7.5 9.375 6.66211 9.375 5.625C9.375 4.58789 10.2129 3.75 11.25 3.75C12.2871 3.75 13.125 4.58789 13.125 5.625C13.125 6.66211 12.2871 7.5 11.25 7.5ZM6.5625 11.25H15.9375C16.4531 11.25 16.875 11.6719 16.875 12.1875C16.875 12.7031 16.4531 13.125 15.9375 13.125H6.5625C6.04687 13.125 5.625 12.7031 5.625 12.1875C5.625 11.6719 6.04687 11.25 6.5625 11.25Z" fill="black"/>
<g clip-path="url(#clip1_1342_10)">
<path d="M18.8929 23.9062H16.1071C13.2866 23.9062 11 26.2148 11 29.0625C11 29.5802 11.4158 30 11.9286 30H23.0714C23.5842 30 24 29.5802 24 29.0625C24 26.2148 21.7134 23.9062 18.8929 23.9062ZM12.4216 28.5938C12.6508 26.7451 14.2152 25.3125 16.1071 25.3125H18.8929C20.7837 25.3125 22.3489 26.7466 22.5781 28.5938H12.4216ZM17.5 22.5C19.5513 22.5 21.2143 20.821 21.2143 18.75C21.2143 16.679 19.5513 15 17.5 15C15.4487 15 13.7857 16.679 13.7857 18.75C13.7857 20.8213 15.4484 22.5 17.5 22.5ZM17.5 16.4062C18.78 16.4062 19.8214 17.4577 19.8214 18.75C19.8214 20.0423 18.78 21.0938 17.5 21.0938C16.22 21.0938 15.1786 20.042 15.1786 18.75C15.1786 17.4577 16.2203 16.4062 17.5 16.4062Z" fill="#F0A500"/>
</g>
</g>
<defs>
<clipPath id="clip0_1342_10">
<rect width="22.5" height="30" fill="white"/>
</clipPath>
<clipPath id="clip1_1342_10">
<rect width="13" height="15" fill="white" transform="translate(11 15)"/>
</clipPath>
</defs>
</svg>
