<svg width="30" height="40" viewBox="0 0 30 40" fill="none" xmlns="http://www.w3.org/2000/svg">
<g clip-path="url(#clip0_1145_142)">
<path d="M15 0C11.7344 0 8.95312 2.08594 7.92969 5H3.75C1.67969 5 0 6.67969 0 8.75V36.25C0 38.3203 1.67969 40 3.75 40H26.25C28.3203 40 30 38.3203 30 36.25V8.75C30 6.67969 28.3203 5 26.25 5H22.0703C21.0469 2.08594 18.2656 0 15 0ZM15 10C13.6172 10 12.5 8.88281 12.5 7.5C12.5 6.11719 13.6172 5 15 5C16.3828 5 17.5 6.11719 17.5 7.5C17.5 8.88281 16.3828 10 15 10ZM8.75 15H21.25C21.9375 15 22.5 15.5625 22.5 16.25C22.5 16.9375 21.9375 17.5 21.25 17.5H8.75C8.0625 17.5 7.5 16.9375 7.5 16.25C7.5 15.5625 8.0625 15 8.75 15Z" fill="black"/>
</g>
<defs>
<clipPath id="clip0_1145_142">
<rect width="30" height="40" fill="white"/>
</clipPath>
</defs>
</svg>
