<svg width="30" height="39" viewBox="0 0 30 39" fill="none" xmlns="http://www.w3.org/2000/svg">
<path d="M9.67057 12.5717C9.67057 12.4171 9.72914 12.2698 9.83895 12.1667C9.94876 12.0562 10.0952 11.9973 10.2416 11.9973H20.8931V1.79034C20.8931 1.56204 20.8053 1.34111 20.6442 1.1791C20.4832 1.02445 20.2635 0.928711 20.0366 0.928711H0.856515C0.629575 0.928711 0.409956 1.02445 0.248902 1.1791C0.0951684 1.34111 0 1.56204 0 1.79034V27.5655C0 27.7938 0.0951684 28.0148 0.248902 28.1768C0.409956 28.3388 0.629575 28.4272 0.856515 28.4272H9.67057V12.5717ZM2.34993 18.883V17.1597H9.20205V18.883H2.34993ZM9.20937 21.0628V22.7861H2.47438V21.0628H9.20937ZM2.46706 14.9799V13.2566H9.20205V14.9799H2.46706ZM18.4261 11.0768H2.46706V9.35352H18.4261V11.0768ZM18.4261 7.17367H4.09224V5.45042H18.4334V7.17367H18.4261Z" fill="#D5A068"/>
<path d="M18.4334 5.4502H4.09229V7.17345H18.4334V5.4502Z" fill="#4D4E50"/>
<path d="M18.426 9.35352H2.46704V11.0768H18.426V9.35352Z" fill="#4D4E50"/>
<path d="M9.20203 13.2568H2.46704V14.9801H9.20203V13.2568Z" fill="#4D4E50"/>
<path d="M9.2021 17.1597H2.34998V18.8829H9.2021V17.1597Z" fill="#4D4E50"/>
<path d="M9.20203 21.063H2.46704V22.7862H9.20203V21.063Z" fill="#4D4E50"/>
<path d="M28.8507 13.146H10.8126V37.7724H28.8507V13.146ZM23.8434 33.5673H11.8522V31.8441H23.8434V33.5673ZM27.8112 29.6642H11.8522V27.941H27.8112V29.6642ZM27.8112 25.7611H11.8522V24.0379H27.8112V25.7611ZM27.8112 21.858H11.8522V20.1348H27.8112V21.858ZM13.4773 17.9549V16.2317H27.8185V17.9549H13.4773Z" fill="white"/>
<path d="M29.8316 12.1669C29.7218 12.0565 29.5754 11.9976 29.429 11.9976H20.8931H10.2415C10.0878 11.9976 9.9414 12.0565 9.83891 12.1669C9.73642 12.27 9.67053 12.4247 9.67053 12.572V28.4274V38.3472C9.67053 38.5018 9.7291 38.6491 9.83891 38.7522C9.9414 38.8627 10.0951 38.9216 10.2415 38.9216H29.4216C29.5754 38.9216 29.7218 38.8627 29.8243 38.7522C29.9268 38.6491 29.9926 38.4945 29.9926 38.3472V12.572C30 12.4247 29.9341 12.2774 29.8316 12.1669ZM10.8126 13.1464H28.8506V37.7728H10.8126V13.1464Z" fill="#4D4E50"/>
<path d="M27.8184 16.2319H13.4773V17.9552H27.8184V16.2319Z" fill="#CCCCCC"/>
<path d="M27.8112 20.1348H11.8522V21.858H27.8112V20.1348Z" fill="#CCCCCC"/>
<path d="M27.8112 24.0381H11.8522V25.7613H27.8112V24.0381Z" fill="#CCCCCC"/>
<path d="M27.8112 27.9409H11.8522V29.6642H27.8112V27.9409Z" fill="#CCCCCC"/>
<path d="M23.8434 31.8442H11.8522V33.5675H23.8434V31.8442Z" fill="#CCCCCC"/>
</svg>
