<svg width="37" height="38" viewBox="0 0 37 38" fill="none" xmlns="http://www.w3.org/2000/svg">
<path d="M36.4102 37.9287V35.9101H2.02086V0.928711H0V36.9194C0 37.1868 0.104079 37.4456 0.29489 37.6354C0.485701 37.8252 0.745898 37.9287 1.01477 37.9287H36.4102Z" fill="#4D4E50"/>
<path d="M35.4735 4.38818H29.6538C28.8125 4.38818 28.1273 5.06969 28.1273 5.90649C28.1273 6.74328 28.8125 7.42479 29.6538 7.42479H31.666L20.9198 20.0371L20.8678 16.2413C20.8591 15.6115 20.4515 15.0508 19.8617 14.8351C19.2632 14.6195 18.5954 14.8006 18.1878 15.2837L4.11111 31.8125C3.5647 32.4509 3.64276 33.4085 4.29325 33.9433C4.93507 34.4868 5.8978 34.4092 6.43554 33.7622L17.8842 20.3217L17.9362 24.1175C17.9449 24.7472 18.3439 25.308 18.9423 25.5236C19.5408 25.7393 20.2086 25.5582 20.6163 25.0751L33.9557 9.41756V12.1436C33.9557 12.9804 34.6409 13.6619 35.4735 13.6619C36.3148 13.6619 37 12.9804 37 12.1436V5.90649C37 5.50966 36.8352 5.12145 36.5577 4.83677C36.2715 4.55209 35.8812 4.38818 35.4735 4.38818Z" fill="#D6A068"/>
</svg>
