<svg width="44" height="37" viewBox="0 0 44 37" fill="none" xmlns="http://www.w3.org/2000/svg">
<path d="M36.4866 18.2169C36.6451 27.8461 28.8227 35.8097 19.0466 35.9659C9.27801 36.122 1.19915 28.4112 1.04828 18.782C0.889873 9.14534 8.71226 1.18171 18.4808 1.033C24.7493 0.936334 30.3162 4.0742 33.5448 8.87765L34.4349 8.34972C31.0253 3.23396 25.1189 -0.104663 18.4657 -0.000563108C8.11634 0.163022 -0.166187 8.5951 -0.000234633 18.7969C0.165718 28.9986 8.71981 37.163 19.0617 36.9994C29.411 36.8358 37.6936 28.4038 37.5276 18.2094C37.4748 15.1534 36.6677 12.2832 35.2948 9.7625L34.4047 10.2904C35.6871 12.6624 36.4414 15.3541 36.4866 18.2169Z" fill="#4D4E50"/>
<path d="M18.4961 1.99986C9.2556 2.14114 1.87826 9.65119 2.02913 18.7599C2.17999 27.8686 9.79117 35.1407 19.0392 34.9995C28.2873 34.8507 35.6571 27.3481 35.5138 18.232C35.4685 15.5403 34.767 13.0121 33.5752 10.7889L29.977 12.9303C30.8068 14.5513 31.3046 16.3656 31.3273 18.2989C31.4404 25.1323 25.9112 30.7611 18.9714 30.8727C12.0391 30.9842 6.3288 25.5338 6.21565 18.693C6.1025 11.8596 11.6317 6.23077 18.564 6.11924C22.9391 6.05231 26.8239 8.1938 29.1246 11.5027L32.7152 9.36863C29.6602 4.85517 24.4176 1.9032 18.4961 1.99986Z" fill="#4D4E50"/>
<path d="M18.5641 6.1192C11.6318 6.23073 6.10255 11.8595 6.2157 18.6929C6.32884 25.5263 12.0391 30.9841 18.9714 30.8726C25.9037 30.7611 31.4329 25.1323 31.3273 18.2989C31.2971 16.3656 30.8068 14.5513 29.9771 12.9303L26.3864 15.0643C26.8541 16.0682 27.1257 17.1835 27.1483 18.3658C27.2238 22.9239 23.5351 26.6789 18.911 26.7458C14.287 26.8202 10.4852 23.1841 10.4098 18.626C10.3343 14.0679 14.023 10.3129 18.647 10.246C21.4758 10.2014 23.9952 11.5473 25.5491 13.6441L29.1397 11.5026C26.824 8.20119 22.9392 6.05227 18.5641 6.1192Z" fill="white"/>
<path d="M18.632 10.2462C14.0079 10.3205 10.3193 14.0681 10.3947 18.6262C10.4701 23.1843 14.2795 26.8203 18.896 26.746C23.52 26.6716 27.2087 22.9166 27.1332 18.366C27.1106 17.1837 26.8391 16.0758 26.3714 15.0645L22.7431 17.2283C22.8637 17.6075 22.9392 18.0091 22.9467 18.4329C22.9844 20.7082 21.1439 22.5894 18.8281 22.6266C16.5198 22.6638 14.6114 20.842 14.5737 18.5667C14.536 16.2914 16.3841 14.4102 18.6923 14.373C19.9747 14.3507 21.1363 14.9084 21.9208 15.7932L25.5265 13.6443C23.9802 11.5549 21.4607 10.2016 18.632 10.2462Z" fill="#4D4E50"/>
<path d="M18.6999 14.3727C16.3916 14.4099 14.5435 16.2837 14.5813 18.5664C14.619 20.8418 16.5199 22.6635 18.8357 22.6263C21.1515 22.5892 22.992 20.7154 22.9543 18.4326C22.9468 18.0088 22.8789 17.6072 22.7506 17.228L20.0803 18.8118C19.7409 19.0126 19.3034 18.9159 19.0846 18.5888L19.0469 18.5293C18.7829 18.1277 18.9036 17.5924 19.3184 17.3396L21.9209 15.7855C21.1439 14.9081 19.9823 14.3504 18.6999 14.3727Z" fill="white"/>
<path d="M42.7932 8.08236C42.9591 8.17159 43.1628 8.16415 43.3212 8.06749L43.8719 7.74032C43.9548 7.68827 44.0076 7.59904 44.0001 7.50238C44.0001 7.40571 43.9397 7.31649 43.8568 7.27187L41.3071 5.94832L41.5938 5.7773C41.6541 5.74012 41.6994 5.68063 41.7145 5.61371C41.7296 5.54679 41.722 5.47243 41.6843 5.41295L41.3222 4.84784C41.2468 4.72143 41.0808 4.68425 40.9526 4.75861L40.6584 4.92963L40.5981 2.11894C40.5981 2.02227 40.5453 1.94048 40.4623 1.89587C40.3793 1.85125 40.2737 1.85125 40.1907 1.9033L39.6401 2.23047C39.4741 2.32714 39.3761 2.50559 39.3836 2.69149L39.4515 5.65833L39.3006 5.74012L39.2403 2.92943C39.2403 2.83276 39.1875 2.75097 39.1045 2.69892C39.0215 2.65431 38.9159 2.65431 38.8329 2.70636L38.2823 3.03353C38.1163 3.13019 38.0183 3.30865 38.0258 3.50198L38.0937 6.46882L37.9428 6.55061L37.8825 3.73992C37.8825 3.64325 37.8297 3.55403 37.7392 3.50941C37.6562 3.4648 37.5506 3.4648 37.4676 3.51685L36.9169 3.84402C36.7585 3.94068 36.6605 4.11914 36.6605 4.30503L36.7133 6.83317C36.7133 6.92983 36.668 7.01162 36.585 7.06367L34.4352 8.34261L33.5451 8.87055L32.7078 9.36874L29.1172 11.5028L25.5266 13.6443L21.9209 15.7932L19.3185 17.3472C18.9036 17.5926 18.7829 18.1354 19.0469 18.5369L19.0846 18.589C19.3034 18.9162 19.7409 19.0128 20.0803 18.8121L22.7506 17.2283L26.379 15.0645L29.9696 12.9304L33.5677 10.789L34.405 10.2908L35.2951 9.76283L37.445 8.48389C37.5279 8.43927 37.626 8.43184 37.709 8.47645L40.0776 9.71078C40.2435 9.80001 40.4472 9.79257 40.6056 9.69591L41.1563 9.36874C41.2392 9.31669 41.292 9.22746 41.2845 9.13079C41.2845 9.03413 41.2242 8.9449 41.1412 8.90029L38.5916 7.57673L38.7349 7.49494L41.4429 8.90029C41.6089 8.98952 41.805 8.98208 41.9709 8.88542L42.5216 8.55825C42.6046 8.5062 42.6574 8.41697 42.6498 8.3203C42.6498 8.22364 42.5895 8.14185 42.5065 8.0898L39.9569 6.76624L40.1002 6.68445L42.7932 8.08236Z" fill="#D5A068"/>
</svg>
