<svg width="28" height="32" viewBox="0 0 28 32" fill="none" xmlns="http://www.w3.org/2000/svg">
<path d="M6.89926 21.9027C13.1367 29.6079 20.9368 33.7004 24.656 31.3286L24.697 31.3011C24.8062 31.2257 24.9154 31.1503 25.0177 31.0612C25.0928 30.9995 25.1679 30.9378 25.2361 30.8693L25.2497 30.8624C25.3385 30.8007 25.4272 30.739 25.5091 30.6773C25.5773 30.6225 25.6387 30.5608 25.707 30.4991C27.8088 27.1743 21.0801 21.4434 19.6061 22.6019L19.1625 22.9652L18.9032 23.1777L18.5824 23.4382C18.0638 23.8633 17.4018 23.9044 17.1084 23.5411L16.3372 22.595C15.7367 21.3063 14.406 19.2908 12.6862 17.1657C10.9597 15.0406 9.27411 13.3131 8.13446 12.4631L7.38379 11.5376C7.08352 11.1675 7.26778 10.5299 7.7796 10.1049L7.87514 10.0226L8.10034 9.83755L8.50979 9.50164L8.89195 9.19316L8.93972 9.15203C9.94289 6.88296 5.49346 0.397958 3.13909 1.00807L2.75693 1.31655L2.6068 1.43995L2.14275 1.82384L2.0745 1.87868L1.822 2.08433L1.65822 2.21458L1.31018 2.5025L1.33066 2.52307C-1.73344 5.71073 0.661877 14.2043 6.89926 21.9027Z" fill="#4D4E50"/>
<path d="M8.94662 9.15878L9.96344 8.3293C11.3351 7.21191 11.2396 4.78517 9.82013 2.72862C9.71094 2.5778 9.60175 2.42699 9.47891 2.27617C7.74555 0.1305 5.1455 -0.630426 3.67828 0.569232L3.13916 1.00796C5.49354 0.397852 9.94296 6.88286 8.94662 9.15878Z" fill="#D6A068"/>
<path d="M25.707 30.4987L25.8162 30.3891L25.9663 30.2657L27.0309 29.3951C28.5049 28.1954 28.2934 25.4876 26.56 23.3488C26.444 23.2048 26.3212 23.0609 26.1983 22.9306C24.4854 21.114 22.1379 20.5313 20.7662 21.6556L19.7016 22.5262L19.6129 22.5947C21.0801 21.443 27.802 27.174 25.707 30.4987Z" fill="#D6A068"/>
</svg>
