<svg width="35" height="30" viewBox="0 0 35 30" fill="none" xmlns="http://www.w3.org/2000/svg">
<g clip-path="url(#clip0_1_3)">
<path d="M33.1678 13.6821V10.729H26.0996L23.8393 12.962C23.5251 13.2725 23.1171 13.4377 22.6758 13.4377C22.2345 13.4377 21.8199 13.2659 21.5122 12.962C20.8904 12.3476 20.877 11.3632 21.4588 10.729H13.5079C13.782 11.0263 13.9358 11.4029 13.9358 11.8125C13.9358 12.2485 13.762 12.6581 13.4544 12.962C13.1468 13.2725 12.7322 13.4377 12.2908 13.4377C11.8495 13.4377 11.4349 13.2659 11.1273 12.962L8.86705 10.729H1.83228V13.6821H33.1678Z" fill="#D5A068"/>
<path d="M34.0839 8.91874H27.9318L34.1507 2.77472C34.4584 2.46421 34.6322 2.06122 34.6322 1.62519C34.6322 1.18917 34.4584 0.779564 34.1507 0.475666C33.8365 0.171768 33.4219 0 32.9872 0C32.5459 0 32.1313 0.171768 31.8237 0.475666L23.2709 8.91874H11.689L3.13622 0.475666C2.82862 0.171768 2.41402 0 1.97268 0C1.53802 0 1.12342 0.171768 0.809133 0.475666C0.501529 0.78617 0.327665 1.18917 0.327665 1.62519C0.327665 2.06122 0.501529 2.47082 0.809133 2.77472L7.02809 8.91874H0.916125C0.675392 8.91874 0.441345 9.01784 0.267482 9.183C0.0936187 9.34816 0 9.58599 0 9.82383V14.5871C0 14.8249 0.100306 15.0628 0.267482 15.2279C0.441345 15.3997 0.675392 15.4922 0.916125 15.4922H2.91555L6.19889 29.009C6.33932 29.5904 6.8676 30 7.47612 30H27.8315C28.4333 30 28.9616 29.5904 29.102 29.009L32.4255 15.4922H34.0839C34.3246 15.4922 34.5587 15.3931 34.7325 15.2279C34.8997 15.0628 35 14.8249 35 14.5871V9.82383C35 9.58599 34.8997 9.35477 34.7325 9.183C34.5587 9.01784 34.3246 8.91874 34.0839 8.91874ZM8.77341 24.2061V17.1768C8.77341 16.8069 9.07432 16.5096 9.44211 16.5096C9.81658 16.5096 10.1175 16.8069 10.1175 17.1768V24.2061C10.1175 24.5761 9.81658 24.8668 9.44211 24.8668C9.07432 24.8734 8.77341 24.5761 8.77341 24.2061ZM16.8246 25.5208V17.1768C16.8246 16.8069 17.1255 16.5096 17.4933 16.5096C17.8678 16.5096 18.1687 16.8069 18.1687 17.1768V25.5208C18.1687 25.8908 17.8678 26.1881 17.4933 26.1881C17.1255 26.1881 16.8246 25.8908 16.8246 25.5208ZM26.2266 24.2061C26.2266 24.5761 25.9257 24.8668 25.5512 24.8668C25.1834 24.8668 24.8825 24.5695 24.8825 24.2061V17.1768C24.8825 16.8069 25.1834 16.5096 25.5512 16.5096C25.9257 16.5096 26.2266 16.8069 26.2266 17.1768V24.2061ZM1.83225 13.682V10.7289H8.86034L11.1206 12.9619C11.4282 13.2724 11.8428 13.4376 12.2841 13.4376C12.7254 13.4376 13.14 13.2658 13.4477 12.9619C13.7553 12.658 13.9291 12.2484 13.9291 11.8124C13.9291 11.4094 13.7753 11.0262 13.5011 10.7289H21.4454C20.8636 11.3631 20.8836 12.3475 21.4989 12.9619C21.8065 13.2724 22.2211 13.4376 22.6624 13.4376C23.1037 13.4376 23.5183 13.2658 23.8259 12.9619L26.0862 10.7289H33.1677V13.682H1.83225Z" fill="#4D4E50"/>
<path d="M18.1687 25.521V17.177C18.1687 16.8071 17.8678 16.5098 17.4933 16.5098C17.1255 16.5098 16.8246 16.8071 16.8246 17.177V25.521C16.8246 25.891 17.1255 26.1883 17.4933 26.1883C17.8678 26.1883 18.1687 25.891 18.1687 25.521Z" fill="white"/>
<path d="M10.1175 24.2063V17.177C10.1175 16.8071 9.81662 16.5098 9.44214 16.5098C9.07435 16.5098 8.77344 16.8071 8.77344 17.177V24.2063C8.77344 24.5763 9.07435 24.867 9.44214 24.867C9.81662 24.8736 10.1175 24.5763 10.1175 24.2063Z" fill="white"/>
<path d="M25.5579 16.5098C25.1901 16.5098 24.8892 16.8071 24.8892 17.177V24.2063C24.8892 24.5763 25.1901 24.867 25.5579 24.867C25.9323 24.867 26.2333 24.5697 26.2333 24.2063V17.177C26.2266 16.8071 25.9257 16.5098 25.5579 16.5098Z" fill="white"/>
</g>
<defs>
<clipPath id="clip0_1_3">
<rect width="35" height="30" fill="white"/>
</clipPath>
</defs>
</svg>
