<svg width="43" height="31" viewBox="0 0 43 31" fill="none" xmlns="http://www.w3.org/2000/svg">
<path d="M35.5406 6.26412L41.5596 17.7927H42.4635C42.4635 17.7284 42.4562 17.6641 42.4194 17.607L36.2535 5.79983L35.9228 5.16412C35.8493 5.0284 35.7023 4.93555 35.5406 4.93555C35.3789 4.93555 35.2319 5.02126 35.1584 5.16412L34.8277 5.79983L28.6618 17.607C28.6324 17.6713 28.6177 17.7355 28.6177 17.7927H29.5143L35.5406 6.26412Z" fill="#C8C8C8"/>
<path d="M41.5596 17.7998H29.5143H28.6177H28.0812C28.0812 21.8069 31.4177 25.0498 35.5406 25.0498C39.6635 25.0498 43 21.8069 43 17.7998H42.4635H41.5596Z" fill="#D6A068"/>
<path d="M7.45939 4.93555C7.29771 4.93555 7.15073 5.02126 7.07724 5.16412L6.74652 5.79983L0.580569 17.607C0.551172 17.6713 0.543823 17.7355 0.543823 17.7927H1.44042L7.46674 6.26412L13.4857 17.7927H14.3897C14.3897 17.7284 14.3823 17.6641 14.3456 17.607L8.17226 5.79983L7.84155 5.16412C7.76806 5.02126 7.62107 4.93555 7.45939 4.93555Z" fill="#C8C8C8"/>
<path d="M1.44044 17.7998H0.53649H0C0 21.8069 3.33652 25.0498 7.45941 25.0498C11.5823 25.0498 14.9188 21.8069 14.9188 17.7998H14.3823H13.4784H1.44044Z" fill="#D5A068"/>
<path d="M36.8488 3.45H23.9143C23.6497 2.95 23.2234 2.53571 22.709 2.28571V1.17143C22.709 0.528571 22.1652 0 21.5037 0C20.835 0 20.2985 0.528571 20.2985 1.17143V2.28571C19.7767 2.54286 19.3578 2.95 19.0932 3.45714H6.15131C5.48253 3.45714 4.94604 3.98571 4.94604 4.62857C4.94604 5.27857 5.48988 5.8 6.15131 5.8H6.74659L7.0773 5.16429C7.1508 5.02857 7.29778 4.93571 7.45946 4.93571C7.62114 4.93571 7.76813 5.02143 7.84162 5.16429L8.17233 5.8H19.0932C19.3578 6.30714 19.7767 6.71429 20.2985 6.97143V27.6571H13.89V29.3286H10.0096V31H32.9243V29.3286H29.0366V27.6571H22.709V6.96429C23.2308 6.70714 23.6497 6.3 23.9143 5.79286H34.8351L35.1658 5.15714C35.2393 5.02143 35.3863 4.92857 35.548 4.92857C35.7097 4.92857 35.8567 5.01429 35.9302 5.15714L36.2609 5.79286H36.8561C37.5249 5.79286 38.0614 5.27143 38.0614 4.62143C38.0541 3.97857 37.5102 3.45 36.8488 3.45Z" fill="#4D4E50"/>
</svg>
