<svg width="38" height="34" viewBox="0 0 38 34" fill="none" xmlns="http://www.w3.org/2000/svg">
<path d="M37.8319 9.53278L35.4628 7.07649C35.3239 6.86575 35.4116 6.56053 35.6675 6.48785C36.0258 6.37885 36.3695 6.1899 36.6619 5.90649C37.6491 4.96903 37.6929 3.4284 36.7497 2.49094C35.8503 1.50988 34.3002 1.48807 33.3131 2.42553C33.0206 2.70168 32.8086 3.03597 32.6843 3.38479C32.5965 3.63188 32.2821 3.71181 32.0847 3.56647L29.7229 1.10292L29.6206 1.03025C29.4743 0.884904 29.233 0.892171 29.0795 1.03751L26.3375 3.65368C26.1694 3.66821 26.0012 3.57374 25.95 3.39206C25.716 2.59268 25.0433 1.9023 23.91 1.68429C23.8003 1.65522 23.676 1.65522 23.559 1.67702C21.2338 2.08398 20.6342 4.4894 21.8846 5.79021C22.1478 6.06636 22.4695 6.26257 22.8132 6.37885C22.996 6.44425 23.0764 6.62593 23.0472 6.80034L20.2906 9.43104C20.1297 9.58365 20.1224 9.83073 20.2686 9.98334L22.762 12.5632L22.8059 12.5995L22.8205 12.614C23.0325 12.8321 23.3981 12.7158 23.4786 12.4178C23.7052 11.5458 24.4364 10.7682 25.6429 10.5284C25.8696 10.5138 26.0962 10.5284 26.3229 10.572C26.8347 10.7101 27.2369 10.9499 27.5367 11.2551C27.8292 11.5676 28.0558 11.9818 28.1728 12.4905C28.2094 12.7085 28.2167 12.9411 28.1874 13.1663C27.895 14.3581 27.076 15.0413 26.1913 15.2302C25.8842 15.2956 25.7526 15.659 25.9646 15.877L25.9792 15.8915L26.0085 15.9351L28.4945 18.5222C28.6408 18.6748 28.8894 18.6821 29.0502 18.5295L31.8141 15.906C31.9896 15.8842 32.1724 15.9714 32.2309 16.1604C32.3333 16.5092 32.5161 16.829 32.7793 17.1051C34.037 18.4059 36.4791 17.919 36.991 15.6299C37.0202 15.5136 37.0202 15.3901 37.0056 15.2738C36.8374 14.1329 36.172 13.4352 35.3824 13.1736C35.2069 13.1155 35.1118 12.9411 35.1338 12.7739L37.883 10.1723C38.0366 10.0269 38.0512 9.78713 37.9123 9.63452L37.8319 9.53278Z" fill="#D6A068"/>
<path d="M20.8901 20.9859L17.4682 20.9713L17.3439 20.9931C17.1976 21.0004 17.0733 21.0949 17.0148 21.2184C17.0368 21.2766 17.0514 21.342 17.0514 21.4074L17.0441 25.3026L16.832 25.2589C16.737 25.3025 16.6273 25.3098 16.5176 25.2517L16.4518 25.2226C16.3348 25.2226 16.2178 25.2299 16.0935 25.2517L16.0643 25.2589L16.035 25.2517C15.9034 25.2299 15.7791 25.2081 15.6621 25.2081C14.5653 25.2081 13.6513 26.0511 13.5124 27.1484C13.4978 27.2429 13.4905 27.3373 13.4905 27.4391C13.4905 27.8315 13.6002 28.253 13.8268 28.6745C13.878 28.769 13.9219 28.8562 13.9877 28.9506C14.0389 29.0306 14.112 29.1033 14.1851 29.1541C14.6896 29.5102 15.1868 29.6483 15.6475 29.6556C15.7718 29.6556 15.8888 29.641 16.0131 29.6265L16.0423 29.6192L16.0716 29.6265C16.1739 29.641 16.2471 29.6556 16.3202 29.6701C16.3787 29.6483 16.4445 29.6192 16.503 29.5901C16.6273 29.5247 16.7662 29.5465 16.8686 29.6192L17.0368 29.5829L17.0294 33.5362C17.0294 33.5871 17.0221 33.6379 17.0075 33.6815C17.0733 33.8123 17.1976 33.9068 17.3512 33.9068H20.9486L21.0071 33.8996H21.0291C21.3362 33.8996 21.5043 33.558 21.3435 33.2891C20.8682 32.5188 20.8097 31.4651 21.4751 30.4259C21.6213 30.2515 21.7895 30.0989 21.9723 29.9753C22.4256 29.7064 22.879 29.5829 23.3104 29.5756C23.7418 29.5829 24.1951 29.7064 24.6485 29.9826C24.8313 30.1134 25.0067 30.266 25.1457 30.4404C25.811 31.4796 25.7379 32.5333 25.2627 33.3036C25.1018 33.5653 25.27 33.9141 25.5698 33.9141H25.5917L25.6502 33.9214L29.2476 33.9286C29.4597 33.9286 29.6352 33.7542 29.6352 33.5362L29.6498 29.7355C29.7522 29.5902 29.9496 29.5247 30.1178 29.612C30.4395 29.7791 30.7978 29.8736 31.1853 29.8736C32.9987 29.8736 34.3367 27.7879 33.0279 25.833C32.9621 25.7313 32.8744 25.6441 32.7793 25.5787C31.8361 24.9101 30.8709 24.9029 30.1251 25.288C29.9569 25.3752 29.7741 25.3171 29.6644 25.1863L29.679 21.4146C29.679 21.2039 29.5182 21.0295 29.3135 21.0222L29.1891 21.0004H25.7672C25.5186 20.9568 25.365 20.6807 25.482 20.4408C25.6502 20.1066 25.7452 19.7287 25.7526 19.329C25.7599 17.97 24.6704 16.8727 23.3323 16.9018C22.0015 16.8654 20.9048 17.9628 20.9048 19.3217C20.9048 19.7214 20.9998 20.0993 21.168 20.4336C21.2996 20.6661 21.1387 20.9423 20.8901 20.9859Z" fill="#4D4E50"/>
<path d="M0.533819 12.8173C-0.782325 14.7649 0.548443 16.8578 2.3618 16.8651C2.74933 16.8651 3.10761 16.7706 3.42934 16.6107C3.60482 16.5235 3.79493 16.5889 3.8973 16.7343V20.535C3.8973 20.5858 3.91192 20.6294 3.92655 20.673C4.01429 20.6076 4.12397 20.564 4.24096 20.564C4.27021 20.5495 4.31408 20.535 4.36526 20.535L7.7653 20.5422C7.85304 20.5204 7.91885 20.4332 7.91885 20.3533L7.89691 20.2733V20.2588L7.8896 20.2515L7.88229 20.237C7.7068 19.8882 7.61175 19.4958 7.60444 19.0815V19.067V19.0597C7.60444 18.7981 7.65562 18.551 7.72143 18.3185C8.03584 17.243 9.00101 16.4436 10.1636 16.4436H10.2221H10.2733C11.4359 16.4436 12.4084 17.243 12.7155 18.3185C12.7813 18.551 12.8325 18.7909 12.8325 19.0597V19.067C12.8325 19.4885 12.7301 19.8882 12.5546 20.2443L12.5473 20.2661L12.54 20.2733L12.518 20.3533C12.518 20.4405 12.5912 20.5277 12.6716 20.5422L16.0716 20.535C16.1228 20.535 16.1594 20.5495 16.2032 20.5568C16.3202 20.564 16.4299 20.6004 16.5177 20.673L16.5396 20.564L16.5542 16.7633C16.6566 16.618 16.854 16.5526 17.0222 16.6398C17.3439 16.8069 17.7022 16.9014 18.0897 16.9014C19.9031 16.9014 21.2411 14.8157 19.9323 12.8609C19.8665 12.7591 19.7788 12.6719 19.6837 12.6065C18.7405 11.938 17.7753 11.9307 17.0295 12.3158C16.8613 12.4031 16.6785 12.3449 16.5688 12.2141L16.5835 8.44247C16.5835 8.23172 16.4226 8.05731 16.2179 8.05005L16.0936 8.02824H12.6716C12.4522 7.97738 12.2914 7.70122 12.4157 7.46868C12.5838 7.13439 12.6862 6.7565 12.6862 6.35681C12.6935 4.99785 11.6041 3.90052 10.2733 3.92959C8.94252 3.89325 7.84573 4.99059 7.84573 6.34954C7.84573 6.74923 7.94078 7.12712 8.10896 7.46141C8.22595 7.70122 8.0724 7.97737 7.82379 8.01371L4.39451 7.99918L4.27021 8.02098C4.06547 8.02824 3.8973 8.20266 3.8973 8.4134V12.185C3.78762 12.3158 3.60482 12.3667 3.43665 12.2795C2.69814 11.8944 1.72566 11.8944 0.782424 12.5557C0.687369 12.6283 0.599626 12.7155 0.533819 12.8173Z" fill="#4D4E50"/>
<path d="M4.08005 29.3211L4.11661 29.3719L4.12392 33.2308C4.12392 33.347 4.21166 33.4342 4.31403 33.4342L7.90418 33.427L7.96267 33.4197H7.9773H7.99923C8.05773 33.4197 8.09429 33.3979 8.12354 33.3688C8.15278 33.3325 8.17472 33.2816 8.17472 33.2308L8.13816 33.1145C7.88955 32.7075 7.74332 32.2279 7.74332 31.7192C7.74332 31.1814 7.90418 30.6073 8.26246 30.0478L8.26977 30.0405L8.27709 30.0332C8.43064 29.8443 8.61343 29.6771 8.81817 29.5391H8.82548H8.83279C9.31538 29.2484 9.80527 29.1176 10.2732 29.1103H10.2805C10.7485 29.1176 11.2384 29.2484 11.721 29.5391H11.7283L11.7356 29.5463C11.9404 29.6844 12.1232 29.8516 12.2767 30.0405L12.284 30.0478L12.2913 30.055C12.6496 30.6146 12.8105 31.1887 12.8105 31.7265C12.8105 32.2352 12.6642 32.7148 12.4156 33.1218L12.3791 33.238C12.3791 33.2889 12.401 33.3398 12.4303 33.3761C12.4595 33.4124 12.5034 33.427 12.5546 33.427H12.5911H12.6057L12.6496 33.4342L16.2324 33.4415C16.3348 33.4415 16.4226 33.3543 16.4226 33.238L16.4299 29.7498C16.3494 29.7571 16.269 29.7643 16.1813 29.7643C16.035 29.7643 15.918 29.728 15.8157 29.7135C15.6914 29.7353 15.5597 29.7425 15.4354 29.7425C14.909 29.7425 14.3533 29.5754 13.8049 29.212L13.7464 29.1757C13.6294 29.0958 13.527 28.994 13.4466 28.8705C13.2419 28.5653 13.1029 28.2528 13.0079 27.9476C12.9786 27.8531 12.9567 27.7586 12.9421 27.6569C12.9055 27.4825 12.8836 27.3081 12.8836 27.1337C12.8836 26.3488 13.2272 25.6366 13.7683 25.157C14.2144 24.7573 14.7993 24.5175 15.4428 24.5175C15.5963 24.5175 15.7352 24.5466 15.8595 24.5684C15.9912 24.5538 16.1155 24.5393 16.2471 24.5393C16.3129 24.5393 16.3714 24.5393 16.4372 24.5466L16.4445 21.1092C16.4445 21.0002 16.3641 20.9203 16.2763 20.913H16.2617H16.2324L16.2032 20.9057L16.1447 20.8912L12.7008 20.8985H12.6862C12.4156 20.8476 12.2328 20.6296 12.2036 20.3752L12.1963 20.3244C12.1963 20.2444 12.2182 20.1645 12.2548 20.0845L12.2621 20.0627V20.0555C12.4156 19.7503 12.5034 19.4087 12.5034 19.0381V19.0235C12.5034 18.8055 12.4595 18.6021 12.401 18.3913C12.1305 17.4684 11.3115 16.7998 10.3317 16.7998H10.2805H10.2732H10.2659H10.2147C9.75409 16.7998 9.33 16.9524 8.97903 17.2068C8.58419 17.4902 8.2844 17.9044 8.14547 18.3986C8.10891 18.5148 8.08698 18.6384 8.06504 18.7547C8.05042 18.8419 8.0431 18.9363 8.0431 19.0235V19.0308C8.0431 19.3942 8.13085 19.743 8.2844 20.0482L8.29171 20.0555V20.0627L8.29902 20.0773C8.33558 20.1572 8.35752 20.2372 8.35752 20.3171L8.3502 20.3607C8.32827 20.6223 8.13816 20.8403 7.87493 20.8912H7.86031L4.4164 20.8839L4.38715 20.8912L4.3579 20.8985L4.31403 20.913H4.28478C4.18973 20.9203 4.10198 21.0002 4.10198 21.1092L4.1093 24.9535L4.06542 25.0117C3.95575 25.1425 3.8022 25.2224 3.62671 25.2224C3.53897 25.2224 3.45122 25.2006 3.36348 25.157C3.07101 25.0044 2.74197 24.9172 2.391 24.9172C1.93035 24.9172 1.42583 25.0625 0.913992 25.4259C0.833561 25.4767 0.767754 25.5494 0.71657 25.6294C0.365599 26.1526 0.21936 26.6686 0.21936 27.1482C0.21936 28.3836 1.19184 29.3719 2.38369 29.3792H2.391C2.74197 29.3792 3.07101 29.292 3.36348 29.1394C3.44391 29.0958 3.53166 29.074 3.61209 29.074C3.8022 29.074 3.97037 29.1757 4.08005 29.3211Z" fill="#CCCCCC"/>
</svg>
