<svg width="36" height="35" viewBox="0 0 36 35" fill="none" xmlns="http://www.w3.org/2000/svg">
<path d="M7.12497 30.7204L7.68106 34.3229H8.34142L9.37019 28.9708C9.26592 28.9639 9.16861 28.957 9.06434 28.957H8.73068C8.08423 29.2877 7.34741 29.4736 6.56193 29.4736C5.77645 29.4736 5.03962 29.2877 4.39317 28.957H4.05951C3.95525 28.957 3.85793 28.9639 3.75366 28.9708L4.78243 34.3229H5.44279L5.99193 30.7204H6.01278L5.4706 29.7354H7.64631L7.10412 30.7204H7.12497Z" fill="white"/>
<path d="M9.37015 28.9639L8.34138 34.316H7.68102H5.4497H4.78934L3.76057 28.9639C1.65437 29.1223 0 30.8512 0 32.9728V34.929H13.1238V32.9728C13.1238 30.8512 11.4694 29.1223 9.37015 28.9639Z" fill="#4D4E50"/>
<path d="M5.44971 34.316H7.68103L7.12493 30.7204H7.10408L7.64627 29.7285H5.47751L6.0197 30.7204H5.99885L5.44971 34.316Z" fill="#D6A068"/>
<path d="M0.868896 24.7619V25.1132C0.868896 25.7125 1.38328 26.2016 2.00888 26.2016H2.0784C2.419 27.3932 3.27399 28.3851 4.39313 28.9568C5.03959 29.2875 5.77641 29.4734 6.56189 29.4734C7.34737 29.4734 8.08419 29.2875 8.73065 28.9568C9.85673 28.392 10.7048 27.3932 11.0454 26.2016H11.1149C11.7474 26.2016 12.2549 25.7125 12.2549 25.1132V24.7619C12.2549 24.2453 11.8726 23.8114 11.3582 23.7012C11.379 23.5427 11.386 23.3843 11.386 23.2259V23.1777C11.386 23.0606 11.386 22.9435 11.3651 22.8126C11.2956 22.0687 11.0315 21.3867 10.6353 20.8012C10.4267 20.4982 10.1626 20.2502 9.90539 19.9953C9.23808 19.341 8.69589 19.1619 8.03553 19.0103C7.16664 18.8106 6.87469 18.783 5.99189 18.8519C5.58873 18.8863 4.91446 19.0792 4.88666 19.1068C3.09326 19.6303 1.78645 21.2696 1.78645 23.219C1.78645 23.2465 1.78645 23.281 1.78645 23.3085C1.78645 23.4394 1.78645 23.5703 1.80035 23.6943C1.27901 23.7907 0.868896 24.2247 0.868896 24.7619ZM11.24 24.3349C11.4416 24.39 11.5876 24.5553 11.5876 24.7619V25.1132C11.5876 25.3405 11.4138 25.5265 11.1844 25.5541C11.2053 25.3819 11.2192 25.2097 11.2192 25.0306C11.2192 24.8584 11.2053 24.6931 11.1844 24.5209C11.2053 24.4589 11.2192 24.3969 11.24 24.3349ZM2.62754 24.4589C2.64144 24.3762 2.66229 24.2867 2.68315 24.204C3.23229 23.8183 3.9274 23.219 4.1985 22.7506C4.1985 22.7506 8.62638 23.7769 10.2321 23.894C10.2808 23.9009 10.3225 23.9009 10.3642 23.9009C10.4267 24.08 10.4684 24.266 10.5032 24.4589C10.531 24.6448 10.5518 24.8308 10.5518 25.0237C10.5518 25.1615 10.5449 25.2992 10.531 25.4301C10.5032 25.6574 10.4545 25.8847 10.392 26.0982C9.90539 27.6687 8.37614 28.8191 6.56884 28.8191C4.76154 28.8191 3.23924 27.6687 2.74571 26.0982C2.6762 25.8847 2.62754 25.6574 2.60668 25.4301C2.59278 25.2923 2.58583 25.1615 2.58583 25.0237C2.57888 24.8308 2.59973 24.6448 2.62754 24.4589ZM1.53621 24.7619C1.53621 24.5415 1.70999 24.3624 1.92547 24.328C1.92547 24.4106 1.93242 24.5002 1.93242 24.5828C1.91157 24.7275 1.89767 24.879 1.89767 25.0306C1.89767 25.2097 1.91157 25.3819 1.93242 25.5541C1.70303 25.5196 1.52926 25.3405 1.52926 25.1132V24.7619H1.53621Z" fill="#4D4E50"/>
<path d="M23.1195 32.8692V34.7497H36V32.8692C36 31.8773 35.6107 30.975 34.9782 30.2861C35.3952 30.1071 35.6663 29.9486 35.6872 29.9348C35.7219 29.9142 35.7428 29.8729 35.7428 29.8315C35.7428 29.7902 35.715 29.7558 35.6733 29.7351C35.6594 29.7282 34.6028 29.2254 34.3248 28.5503C34.6932 28.881 35.1311 29.0187 35.708 29.122C35.7497 29.1289 35.7984 29.1152 35.8262 29.0807C35.854 29.0532 35.861 29.0049 35.8471 28.9636C35.4578 28.1026 35.0407 27.0212 34.8044 26.0155C34.853 25.9673 34.9017 25.9122 34.9434 25.8502C35.0546 25.6848 35.1241 25.4989 35.1241 25.2853V24.9478C35.1241 24.6654 34.999 24.4037 34.7974 24.2177C34.7557 21.1593 32.4062 18.6934 29.5076 18.6934C28.458 18.6934 27.4848 19.0171 26.6646 19.575C26.3518 19.7472 26.0876 19.9746 25.8583 20.2432C24.8503 21.2626 24.2178 22.7023 24.2178 24.3003V24.3072C24.0718 24.4863 23.9815 24.7067 23.9815 24.9478V25.2853C23.9815 25.6366 24.1622 25.9397 24.4472 26.1326C24.5306 27.2967 24.7808 28.5572 25.045 29.5422C23.8911 30.231 23.1195 31.464 23.1195 32.8692ZM32.1212 29.8866C32.0587 29.99 30.731 31.1816 30.731 31.1816L31.6277 32.0357L29.5563 34.2606L27.4848 32.0357L28.3815 31.1816C28.3815 31.1816 27.0539 29.99 26.9913 29.8866C26.887 29.7007 27.8115 29.0876 27.8115 29.0876L29.5563 34.2606L31.301 29.0876C31.301 29.0807 32.2255 29.7007 32.1212 29.8866ZM28.4024 30.3688L30.7102 30.3481L29.5563 33.7371H29.5215L28.4024 30.3688ZM34.1023 25.0374C34.1093 24.8789 34.1023 24.7067 34.0884 24.5414C34.3039 24.5759 34.4707 24.7481 34.4707 24.9616V25.2991C34.4707 25.5195 34.297 25.6917 34.0745 25.7262C34.0954 25.5609 34.1093 25.3955 34.1093 25.2233C34.1093 25.1545 34.1023 25.0994 34.1023 25.0374ZM25.7053 24.6723C25.7331 24.4863 25.7818 24.3072 25.8374 24.135C25.8791 24.135 25.9208 24.135 25.9695 24.1281C27.5474 24.011 31.871 23.026 31.871 23.026C32.1351 23.4806 32.8164 24.0592 33.3516 24.4312C33.3725 24.5139 33.3864 24.5896 33.4003 24.6723C33.4281 24.8514 33.4489 25.0305 33.4489 25.2165C33.4489 25.3473 33.442 25.4782 33.4281 25.6091C33.4003 25.8295 33.3586 26.043 33.289 26.2497C32.8094 27.7651 31.3219 28.8741 29.5493 28.8741C27.7837 28.8741 26.2892 27.7651 25.8096 26.2497C25.747 26.043 25.6984 25.8295 25.6706 25.6091C25.6567 25.4782 25.6497 25.3473 25.6497 25.2165C25.6567 25.0305 25.6775 24.8514 25.7053 24.6723ZM25.038 24.7274C25.0172 24.8858 25.0033 25.0511 25.0033 25.2165C25.0033 25.3887 25.0172 25.554 25.038 25.7193C24.8156 25.6917 24.6418 25.5126 24.6418 25.2922V24.9547C24.6418 24.7549 24.8642 24.5759 25.0658 24.5276C25.045 24.6447 25.045 24.6447 25.038 24.7274Z" fill="#4D4E50"/>
<path d="M29.5632 33.7371L30.7171 30.355L28.4023 30.3688L29.5354 33.7371H29.5632Z" fill="#D5A068"/>
<path d="M32.1212 29.8864C32.2255 29.7004 31.301 29.0874 31.301 29.0874L29.5563 34.2604L31.6277 32.0355L30.731 31.1814C30.738 31.1814 32.0656 29.9898 32.1212 29.8864Z" fill="white"/>
<path d="M29.5563 34.2604L27.8116 29.0874C27.8116 29.0874 26.8871 29.7004 26.9914 29.8864C27.0539 29.9898 28.3816 31.1814 28.3816 31.1814L27.4849 32.0355L29.5563 34.2604Z" fill="white"/>
<path d="M18.7125 12.8796L19.2686 16.4821H19.9289L20.9577 11.13C20.8534 11.1231 20.7561 11.1162 20.6519 11.1162H20.3182C19.6718 11.4468 18.9349 11.6328 18.1495 11.6328C17.364 11.6328 16.6271 11.4468 15.9807 11.1162H15.647C15.5428 11.1162 15.4455 11.1231 15.3412 11.13L16.37 16.4821H17.0303L17.5864 12.8796H17.6073L17.0651 11.8946H19.2338L18.6916 12.8796H18.7125Z" fill="white"/>
<path d="M20.9577 11.123L19.9289 16.4752H19.2685H17.0372H16.3769L15.3481 11.123C13.2488 11.2815 11.5875 13.0104 11.5875 15.132V17.0882H24.7113V15.132C24.7182 13.0173 23.0569 11.2815 20.9577 11.123Z" fill="#4D4E50"/>
<path d="M17.0372 16.4821H19.2685L18.7125 12.8795H18.6916L19.2338 11.8945H17.065L17.6072 12.8795H17.5864L17.0372 16.4821Z" fill="#D6A068"/>
<path d="M12.4564 6.92141V7.2727C12.4564 7.87197 12.9708 8.36103 13.5964 8.36103H13.6659C14.0065 9.55269 14.8615 10.5446 15.9807 11.1163C16.6271 11.4469 17.3639 11.6329 18.1494 11.6329C18.9349 11.6329 19.6717 11.4469 20.3182 11.1163C21.4443 10.5515 22.2923 9.55269 22.6329 8.36103H22.7024C23.335 8.36103 23.8424 7.87197 23.8424 7.2727V6.92141C23.8424 6.40479 23.4601 5.97084 22.9457 5.86063C22.9666 5.7022 22.9735 5.54377 22.9735 5.38534V5.33713C22.9735 5.22003 22.9735 5.10293 22.9527 4.97205C22.8831 4.22813 22.619 3.5462 22.2228 2.96071C22.0142 2.65763 21.771 2.38899 21.4929 2.1479C20.7561 1.5073 19.7899 0.970027 18.7403 0.942475C18.7403 0.942475 17.8575 0.797823 16.4811 1.26622C14.6877 1.78972 13.3809 3.43599 13.3809 5.37846C13.3809 5.40601 13.3809 5.43356 13.3809 5.468C13.3809 5.59888 13.3809 5.72975 13.3948 5.85374C12.8665 5.95017 12.4564 6.39102 12.4564 6.92141ZM22.8275 6.49434C23.0291 6.54944 23.1751 6.71476 23.1751 6.92141V7.2727C23.1751 7.50001 23.0013 7.68599 22.7719 7.71354C22.7928 7.54134 22.8067 7.36914 22.8067 7.19004C22.8067 7.01784 22.7928 6.85252 22.7719 6.68032C22.7928 6.61833 22.8067 6.55633 22.8275 6.49434ZM14.2151 6.61833C14.229 6.52878 14.2498 6.44612 14.2707 6.36346C14.8198 5.97773 15.5149 5.37846 15.786 4.91006C15.786 4.91006 20.2139 5.9364 21.8196 6.0535C21.8683 6.06038 21.91 6.06038 21.9517 6.06038C22.0142 6.23948 22.056 6.42546 22.0907 6.61833C22.1185 6.80431 22.1394 6.99029 22.1394 7.18316C22.1394 7.32092 22.1324 7.45868 22.1185 7.58956C22.0907 7.81687 22.0421 8.03729 21.9795 8.25771C21.4929 9.82821 19.9637 10.9785 18.1564 10.9785C16.3491 10.9785 14.8268 9.82821 14.3332 8.25771C14.2637 8.04418 14.2151 7.81687 14.1942 7.58956C14.1803 7.45868 14.1734 7.32092 14.1734 7.18316C14.1664 6.99718 14.1873 6.80431 14.2151 6.61833ZM13.1307 6.92141C13.1307 6.70098 13.3045 6.52189 13.5199 6.48745C13.5199 6.57011 13.5269 6.65965 13.5269 6.74231C13.506 6.88696 13.4921 7.0385 13.4921 7.19004C13.4921 7.36914 13.506 7.54134 13.5269 7.71354C13.2975 7.6791 13.1237 7.50001 13.1237 7.2727V6.92141H13.1307Z" fill="#4D4E50"/>
<path d="M17.5447 6.68705C17.5169 6.6526 17.4682 6.62505 17.4196 6.62505H14.5279C14.4792 6.62505 14.4306 6.64572 14.3958 6.68705C14.368 6.72837 14.3541 6.77659 14.368 6.82481L14.7434 8.168C14.7642 8.23688 14.8268 8.2851 14.9032 8.2851H17.1485C17.2249 8.2851 17.2944 8.23 17.3083 8.15423L17.4613 7.38275C17.496 7.33453 17.5655 7.27943 17.6698 7.2381C17.8019 7.18988 17.9756 7.15544 18.1494 7.15544C18.3232 7.15544 18.497 7.18299 18.6221 7.23121C18.7264 7.27254 18.7959 7.32076 18.8306 7.37586L18.9836 8.14734C18.9975 8.22311 19.067 8.27821 19.1434 8.27821H21.3887C21.4651 8.27821 21.5277 8.23 21.5416 8.16111L21.917 6.81792C21.9309 6.7697 21.9169 6.7146 21.8891 6.68016C21.8613 6.63883 21.8127 6.61816 21.7571 6.61816H18.8654C18.8167 6.61816 18.7681 6.63883 18.7403 6.68016C18.7125 6.7146 18.6986 6.76282 18.7055 6.81103L18.7264 6.92813C18.5456 6.85925 18.3441 6.8317 18.1355 6.8317C17.927 6.8317 17.7185 6.86614 17.5377 6.93502L17.5655 6.81792C17.5933 6.7697 17.5794 6.72149 17.5447 6.68705ZM17.1624 7.25188C17.1554 7.26565 17.1415 7.28632 17.1346 7.30009L17.1554 7.30698L17.0233 7.96136H15.0353L14.7503 6.94191H17.2319L17.1624 7.25188ZM21.5624 6.9488L21.2774 7.96825H19.2894L19.1573 7.31387L19.1782 7.30698C19.1712 7.28632 19.1573 7.27254 19.1504 7.25188L19.0878 6.9488H21.5624Z" fill="#D6A068"/>
<path d="M22.7719 25.6159H18.768V19.3752C18.768 19.0377 18.4969 18.769 18.1563 18.769C17.8157 18.769 17.5446 19.0377 17.5446 19.3752V25.6159H13.5408C13.2002 25.6159 12.9291 25.8845 12.9291 26.222C12.9291 26.5596 13.2002 26.8282 13.5408 26.8282H22.7789C23.1195 26.8282 23.3906 26.5596 23.3906 26.222C23.3836 25.8914 23.1056 25.6159 22.7719 25.6159Z" fill="#D6A068"/>
</svg>
