<svg width="16" height="25" viewBox="0 0 16 25" fill="none" xmlns="http://www.w3.org/2000/svg">
<path d="M7.81251 0C8.67676 0 9.37501 0.698242 9.37501 1.5625V3.30566C9.45313 3.31543 9.52637 3.3252 9.6045 3.33984C10.1221 3.41797 11.6602 3.66699 12.2949 3.82812C13.1299 4.03809 13.6377 4.8877 13.4277 5.72754C13.2178 6.56738 12.3682 7.07031 11.5283 6.86035C11.0742 6.74316 9.69239 6.51855 9.14063 6.43555C7.57325 6.20117 6.23048 6.31836 5.30762 6.6748C4.41407 7.0166 4.04298 7.5 3.94532 8.04199C3.85255 8.56445 3.92091 8.8623 4.0088 9.04785C4.10157 9.24316 4.28223 9.46289 4.63868 9.70215C5.42969 10.2295 6.64551 10.5762 8.21778 11.0059L8.3545 11.0449C9.74122 11.4209 11.4404 11.8848 12.7002 12.7197C13.3887 13.1787 14.0332 13.7988 14.4336 14.6582C14.8389 15.5273 14.9268 16.5039 14.7412 17.5439C14.4043 19.3994 13.125 20.6396 11.5381 21.2891C10.8691 21.5625 10.1416 21.7383 9.37012 21.8262V23.4375C9.37012 24.3018 8.67188 25 7.80762 25C6.94337 25 6.24512 24.3018 6.24512 23.4375V21.7334C6.22559 21.7285 6.20118 21.7285 6.18165 21.7236H6.17188C4.98048 21.5381 3.02247 21.0254 1.70411 20.4395C0.913093 20.0879 0.56153 19.165 0.913093 18.3789C1.26466 17.5928 2.18751 17.2363 2.97364 17.5879C3.99415 18.042 5.67384 18.4863 6.64551 18.6426C8.20313 18.8721 9.48731 18.7402 10.3565 18.3838C11.1816 18.0469 11.5576 17.5586 11.665 16.9727C11.7578 16.4502 11.6895 16.1523 11.6016 15.9668C11.5088 15.7715 11.3281 15.5518 10.9717 15.3125C10.1807 14.7852 8.96485 14.4385 7.39258 14.0088L7.25587 13.9697C5.86915 13.5938 4.16993 13.1299 2.91016 12.2949C2.22169 11.8359 1.57716 11.2158 1.17676 10.3564C0.771491 9.4873 0.683601 8.51074 0.869148 7.4707C1.22071 5.57129 2.5879 4.36035 4.19923 3.74512C4.83399 3.50098 5.52735 3.34473 6.25001 3.25684V1.5625C6.25001 0.698242 6.94825 0 7.81251 0Z" fill="#FAFAFA"/>
</svg>
