<svg width="43" height="40" viewBox="0 0 43 40" fill="none" xmlns="http://www.w3.org/2000/svg">
<path d="M5.79075 20.5682L21.5314 37.4015L27.0442 31.5085C27.4835 29.2711 29.1956 27.4741 31.4007 26.8487L37.8547 19.9427C37.8637 19.9339 37.8637 19.9251 37.8727 19.9163C38.8497 18.8593 39.6296 17.5732 40.1137 16.1286C40.4812 15.0275 40.6873 13.8472 40.6873 12.6052C40.6873 9.73354 39.6027 7.1438 37.8727 5.27637C36.1247 3.40894 33.7762 2.29024 31.1945 2.28143C29.2942 2.28143 27.5373 2.88923 26.0403 3.94626C24.5433 5.0033 23.3332 6.51838 22.5712 8.31535C22.392 8.73816 21.9707 9.02004 21.4956 9.02004C21.0294 9.02004 20.5992 8.73816 20.4199 8.31535C19.6669 6.51838 18.4478 5.0033 16.9508 3.94626C15.4539 2.88923 13.6969 2.28143 11.7966 2.28143C9.21497 2.28143 6.86642 3.40894 5.12742 5.26756C3.39738 7.12618 2.31274 9.71592 2.31274 12.5963C2.31274 13.8119 2.50995 14.9659 2.85954 16.0493C3.26292 17.2737 3.87247 18.3924 4.64337 19.3614C4.97503 19.7754 5.33359 20.1542 5.71008 20.5065L5.79075 20.5682Z" fill="#D6A068"/>
<path d="M39.6116 21.4314C40.8038 20.1365 41.7361 18.5774 42.3187 16.8509C42.7669 15.5208 43.009 14.0938 43.009 12.6052C43.009 9.16098 41.7092 6.0251 39.5847 3.73486C37.4603 1.44462 34.4843 0 31.1945 0C28.7832 0 26.5333 0.77516 24.6777 2.09645C23.4228 2.98613 22.3471 4.12244 21.4955 5.43493C20.6439 4.12244 19.5683 2.98613 18.3133 2.09645C16.4668 0.77516 14.2168 0 11.8055 0C8.5247 0 5.54868 1.44462 3.42422 3.73486C1.29977 6.0163 0 9.16098 0 12.6052C0 14.0586 0.233062 15.4592 0.663331 16.754C1.14738 18.2339 1.89139 19.5992 2.8326 20.7708C3.21805 21.2464 3.63039 21.6957 4.07859 22.1097L20.3123 39.4715C20.6171 39.8062 21.0742 40 21.5314 40C21.9796 40 22.4367 39.8062 22.7505 39.4715L27.2683 34.6355C28.1109 37.0227 30.4236 38.7316 33.1307 38.7139C36.528 38.6875 39.271 35.9568 39.2441 32.6184C39.2262 29.8084 37.2452 27.4653 34.5918 26.7959L39.5847 21.4666C39.5937 21.449 39.6027 21.4402 39.6116 21.4314ZM36.3219 31.7023V33.6225H34.063V35.8423H32.1088V33.6225H29.8499V31.7023H32.1088V29.4825H34.063V31.7023H36.3219ZM37.8547 19.9427L31.4007 26.8487C29.1866 27.4741 27.4834 29.2711 27.0442 31.5085L21.5314 37.4015L5.7907 20.5682L5.72795 20.5065C5.34251 20.1542 4.99291 19.7754 4.66125 19.3614C3.89035 18.4012 3.2808 17.2825 2.87742 16.0493C2.51887 14.9747 2.32166 13.8119 2.32166 12.6052C2.32166 9.73354 3.4063 7.1438 5.13634 5.27637C6.87534 3.40894 9.21493 2.29024 11.8055 2.29024C13.6969 2.29024 15.4628 2.89804 16.9598 3.95508C18.4567 5.01211 19.6669 6.5272 20.4288 8.32416C20.6081 8.74697 21.0294 9.02885 21.5045 9.02885C21.9706 9.02885 22.4009 8.75578 22.5802 8.32416C23.3421 6.5272 24.5522 5.01211 26.0492 3.95508C27.5462 2.89804 29.3031 2.29024 31.2035 2.29024C33.7851 2.29024 36.1336 3.41775 37.8637 5.27637C39.5937 7.13499 40.6783 9.72473 40.6783 12.6052C40.6783 13.8472 40.4722 15.0275 40.1047 16.1286C39.6206 17.5732 38.8497 18.8593 37.8637 19.9163C37.8637 19.9251 37.8637 19.9339 37.8547 19.9427Z" fill="#4D4E50"/>
<path d="M34.0629 35.8423V33.6226H36.3218V31.7023H34.0629V29.4825H32.1088V31.7023H29.8499V33.6226H32.1088V35.8423H34.0629Z" fill="white"/>
</svg>
