<svg width="62" height="41" viewBox="0 0 62 41" fill="none" xmlns="http://www.w3.org/2000/svg">
<path d="M7.22007 31.72H54.2301C55.0001 31.72 55.6301 31.1 55.6301 30.32V1.4C55.6301 0.63 55.0001 0 54.2301 0H7.22007C6.45007 0 5.82007 0.63 5.82007 1.4V30.32C5.82007 31.09 6.44007 31.72 7.22007 31.72ZM9.02007 3.04H52.3301V28.59H9.02007V3.04Z" fill="#4D4E50"/>
<path d="M56.01 32.68C55.76 32.44 55.45 32.32 55.13 32.32H6.31998C5.99998 32.32 5.67998 32.45 5.42998 32.68L0.509975 37.3C-0.510025 38.26 0.0799752 40.15 1.39998 40.15H60.04C61.35 40.15 61.94 38.26 60.92 37.3L56.01 32.68Z" fill="#4D4E50"/>
<path d="M52.33 3.03999H9.02002V28.59H52.33V3.03999ZM10.92 18.24H20.3V19.41H10.92V18.24ZM30.25 26.35H10.92V20.46H30.25V26.35ZM30.26 19.41H20.88V18.24H30.26V19.41ZM40.91 25.83H30.85V24.95H40.91V25.83ZM50.17 24.31H30.85V23.43H50.18V24.31H50.17ZM50.17 22.79H30.85V21.91H50.18V22.79H50.17ZM50.17 21.28H30.85V20.4H50.18V21.28H50.17ZM30.85 19.41V18.24H40.23V19.41H30.85ZM50.18 19.41H40.8V18.24H50.18V19.41ZM50.18 17.19H10.92V5.20999H50.18V17.19Z" fill="white"/>
<path d="M50.1799 5.21001H10.9199V17.19H50.1799V5.21001Z" fill="#D6A068"/>
<path d="M20.2999 18.24H10.9199V19.41H20.2999V18.24Z" fill="#C8C8C8"/>
<path d="M30.2499 20.46H10.9199V26.35H30.2499V20.46Z" fill="#C8C8C8"/>
<path d="M30.2599 18.24H20.8799V19.41H30.2599V18.24Z" fill="#C8C8C8"/>
<path d="M40.2301 18.24H30.8501V19.41H40.2301V18.24Z" fill="#C8C8C8"/>
<path d="M50.1801 20.39H30.8501V21.27H50.1801V20.39Z" fill="#D5A068"/>
<path d="M50.1801 21.91H30.8501V22.79H50.1801V21.91Z" fill="#D5A068"/>
<path d="M50.1801 23.43H30.8501V24.31H50.1801V23.43Z" fill="#D6A068"/>
<path d="M40.9101 24.94H30.8501V25.82H40.9101V24.94Z" fill="#D6A068"/>
<path d="M50.1901 18.24H40.8101V19.41H50.1901V18.24Z" fill="#C8C8C8"/>
</svg>
