<svg width="31" height="30" viewBox="0 0 31 30" fill="none" xmlns="http://www.w3.org/2000/svg">
<g clip-path="url(#clip0_1232_786)">
<path d="M3.5625 3.75C2.00977 3.75 0.75 5.00977 0.75 6.5625C0.75 7.44727 1.16602 8.2793 1.875 8.8125L14.625 18.375C15.293 18.873 16.207 18.873 16.875 18.375L29.625 8.8125C30.334 8.2793 30.75 7.44727 30.75 6.5625C30.75 5.00977 29.4902 3.75 27.9375 3.75H3.5625ZM0.75 10.3125V22.5C0.75 24.5684 2.43164 26.25 4.5 26.25H27C29.0684 26.25 30.75 24.5684 30.75 22.5V10.3125L18 19.875C16.6641 20.877 14.8359 20.877 13.5 19.875L0.75 10.3125Z" fill="black"/>
</g>
<defs>
<clipPath id="clip0_1232_786">
<rect width="30" height="30" fill="white" transform="translate(0.75)"/>
</clipPath>
</defs>
</svg>
