<svg width="34" height="34" viewBox="0 0 34 34" fill="none" xmlns="http://www.w3.org/2000/svg">
<path d="M15.5125 25.9958L10.4833 20.9666L12.5375 18.9125L15.5125 21.8875L21.4625 15.9375L23.5167 17.9916L15.5125 25.9958ZM7.08333 31.1666C6.30417 31.1666 5.63692 30.8895 5.08158 30.3351C4.52719 29.7797 4.25 29.1125 4.25 28.3333V8.49998C4.25 7.72081 4.52719 7.05404 5.08158 6.49965C5.63692 5.94431 6.30417 5.66665 7.08333 5.66665H8.5V2.83331H11.3333V5.66665H22.6667V2.83331H25.5V5.66665H26.9167C27.6958 5.66665 28.3631 5.94431 28.9184 6.49965C29.4728 7.05404 29.75 7.72081 29.75 8.49998V28.3333C29.75 29.1125 29.4728 29.7797 28.9184 30.3351C28.3631 30.8895 27.6958 31.1666 26.9167 31.1666H7.08333ZM7.08333 28.3333H26.9167V14.1666H7.08333V28.3333ZM7.08333 11.3333H26.9167V8.49998H7.08333V11.3333ZM7.08333 11.3333V8.49998V11.3333Z" fill="#737373"/>
</svg>
