<svg width="40" height="40" viewBox="0 0 40 40" fill="none" xmlns="http://www.w3.org/2000/svg">
<path d="M17.4612 3.30864C17.4612 3.08642 17.2564 2.90535 17.0435 2.9465C9.59059 4.18107 3.71836 10.0082 2.48167 17.3909C2.44072 17.6132 2.6209 17.8189 2.84203 17.8189H5.27446C5.44645 17.8189 5.59387 17.6955 5.62663 17.5226C6.75685 11.7695 11.3596 7.21811 17.1664 6.09054C17.3383 6.05762 17.4612 5.90947 17.4612 5.73663V3.30864Z" fill="#4D4E50"/>
<path d="M37.1498 22.3539H34.7009C34.529 22.3539 34.3815 22.4856 34.3488 22.6584C33.325 28.6255 28.5994 33.3663 22.5961 34.4609C22.4241 34.4938 22.3013 34.642 22.3013 34.8148V37.2428C22.3013 37.465 22.4978 37.6379 22.719 37.6049C30.3848 36.4115 36.4045 30.3951 37.5183 22.7737C37.5511 22.5514 37.3709 22.3539 37.1498 22.3539Z" fill="#4D4E50"/>
<path d="M22.7437 32.0247C27.3383 30.963 30.9009 27.3663 31.8837 22.7901C31.9329 22.5679 31.7527 22.3539 31.5234 22.3539H29.0827C28.9189 22.3539 28.7797 22.4691 28.7387 22.6255C27.9116 25.6132 25.5528 28 22.5553 28.8971C22.3997 28.9465 22.2932 29.0782 22.2932 29.2428V31.679C22.3014 31.9012 22.5143 32.0823 22.7437 32.0247Z" fill="#CCCCCC"/>
<path d="M40 20.2305C40 19.8272 39.8362 19.4403 39.5496 19.1523C39.2629 18.8724 38.878 18.7161 38.4685 18.7161L26.2981 18.7407C25.7248 16.3704 23.8493 14.5185 21.4578 13.9588V1.5144C21.4578 0.674897 20.7781 0 19.9345 0C19.0991 0.00823045 18.4111 0.683128 18.4111 1.52263V13.9588C16.0197 14.5267 14.1523 16.3868 13.579 18.749L1.51515 18.7737C0.679771 18.7737 0 19.4568 0 20.2881C0 20.6914 0.15561 21.0782 0.45045 21.358C0.737101 21.6379 1.12203 21.7942 1.52334 21.7942L13.579 21.7778C14.1523 24.1399 16.0197 26 18.4111 26.5597V38.4774C18.4111 39.3086 19.0909 39.9918 19.9345 39.9918C20.3358 39.9918 20.7207 39.8354 21.0074 39.5556C21.294 39.2675 21.4578 38.8889 21.4578 38.4774V26.5597C23.8493 25.9918 25.7248 24.1399 26.2981 21.7613L38.4685 21.7449C39.312 21.7449 40 21.0617 40 20.2305ZM20 25.0535C17.412 25.0535 15.3153 22.9465 15.3153 20.3457C15.3153 17.7449 17.412 15.6379 20 15.6379C22.588 15.6379 24.6847 17.7449 24.6847 20.3457C24.6847 22.9465 22.588 25.0535 20 25.0535Z" fill="#4D4E50"/>
<path d="M34.66 17.8765H37.117C37.3381 17.8765 37.5101 17.679 37.4774 17.4568C36.2734 9.95061 30.3029 4.06584 22.719 2.90535C22.4978 2.87243 22.3013 3.04527 22.3013 3.26749V5.68724C22.3013 5.86008 22.4241 6.00823 22.6043 6.04115C28.5257 7.11111 33.2104 11.7202 34.316 17.572C34.3406 17.7531 34.488 17.8765 34.66 17.8765Z" fill="#4D4E50"/>
<path d="M22.5633 11.6214C25.4708 12.4856 27.7804 14.749 28.6649 17.6214C28.714 17.7778 28.8451 17.8765 29.0089 17.8765H31.4741C31.7034 17.8765 31.8836 17.6626 31.8263 17.4321C30.7615 12.9794 27.2398 9.5144 22.7435 8.47737C22.5142 8.42798 22.3013 8.60082 22.3013 8.83128V11.2675C22.3013 11.4403 22.4077 11.5802 22.5633 11.6214Z" fill="#CCCCCC"/>
<path d="M17.3957 28.9136C14.4473 28.0658 12.1131 25.7695 11.2204 22.8642C11.1713 22.7161 11.0402 22.6091 10.8764 22.6091H8.4276C8.19828 22.6091 8.0181 22.823 8.07543 23.0535C9.13194 27.5391 12.6864 31.0288 17.2237 32.0412C17.4448 32.0905 17.6577 31.9095 17.6577 31.679V29.251C17.6577 29.1029 17.5513 28.963 17.3957 28.9136Z" fill="#CCCCCC"/>
<path d="M5.25788 22.6091H2.81726C2.59613 22.6091 2.42414 22.8066 2.4569 23.0288C3.65264 30.5432 9.63953 36.4527 17.2399 37.6132C17.461 37.6461 17.6575 37.4733 17.6575 37.251V34.8313C17.6575 34.6584 17.5347 34.5103 17.3545 34.4774C11.4086 33.4156 6.70751 28.7819 5.60186 22.9136C5.57729 22.7407 5.42987 22.6091 5.25788 22.6091Z" fill="#4D4E50"/>
<path d="M17.0189 8.51852C12.6127 9.59671 9.17287 13.0041 8.09179 17.3663C8.03446 17.5967 8.21464 17.8189 8.44396 17.8189H10.9092C11.0648 17.8189 11.204 17.7119 11.2531 17.5638C12.1458 14.7737 14.3817 12.5597 17.2073 11.6708C17.3629 11.6214 17.4612 11.4815 17.4612 11.3251V8.88066C17.4612 8.64198 17.2482 8.46914 17.0189 8.51852Z" fill="#CCCCCC"/>
<path d="M20.0001 15.6379C17.4121 15.6379 15.3154 17.7449 15.3154 20.3457C15.3154 22.9465 17.4121 25.0535 20.0001 25.0535C22.5882 25.0535 24.6848 22.9465 24.6848 20.3457C24.6848 17.7449 22.5882 15.6379 20.0001 15.6379Z" fill="#D6A068"/>
</svg>
