<svg width="38" height="38" viewBox="0 0 38 38" fill="none" xmlns="http://www.w3.org/2000/svg">
<path d="M33.25 31.6667C33.25 32.0866 33.0832 32.4893 32.7863 32.7863C32.4893 33.0832 32.0866 33.25 31.6667 33.25H6.33333C5.91341 33.25 5.51068 33.0832 5.21375 32.7863C4.91682 32.4893 4.75 32.0866 4.75 31.6667V15.0258C4.74983 14.7846 4.80481 14.5464 4.91073 14.3296C5.01666 14.1129 5.17072 13.9231 5.36117 13.775L18.0278 3.9235C18.3058 3.70729 18.6479 3.5899 19 3.5899C19.3521 3.5899 19.6942 3.70729 19.9722 3.9235L32.6388 13.775C32.8293 13.9231 32.9833 14.1129 33.0893 14.3296C33.1952 14.5464 33.2502 14.7846 33.25 15.0258V31.6667ZM30.0833 30.0833V15.7985L19 7.17884L7.91667 15.7985V30.0833H30.0833ZM11.0833 23.75H26.9167V26.9167H11.0833V23.75Z" fill="#737373"/>
</svg>
