<svg width="35" height="31" viewBox="0 0 35 31" fill="none" xmlns="http://www.w3.org/2000/svg">
<g clip-path="url(#clip0_1185_321)">
<path d="M34.6133 15.4707C34.6133 16.5254 33.7344 17.3516 32.7383 17.3516H30.8633L30.9043 26.7383C30.9043 26.8965 30.8926 27.0547 30.875 27.2129V28.1562C30.875 29.4512 29.8262 30.5 28.5312 30.5H27.5938C27.5293 30.5 27.4648 30.5 27.4004 30.4941C27.3184 30.5 27.2363 30.5 27.1543 30.5H25.25H23.8438C22.5488 30.5 21.5 29.4512 21.5 28.1562V26.75V23C21.5 21.9629 20.6621 21.125 19.625 21.125H15.875C14.8379 21.125 14 21.9629 14 23V26.75V28.1562C14 29.4512 12.9512 30.5 11.6562 30.5H10.25H8.38086C8.29297 30.5 8.20508 30.4941 8.11719 30.4883C8.04688 30.4941 7.97656 30.5 7.90625 30.5H6.96875C5.67383 30.5 4.625 29.4512 4.625 28.1562V21.5938C4.625 21.541 4.625 21.4824 4.63086 21.4297V17.3516H2.75C1.69531 17.3516 0.875 16.5312 0.875 15.4707C0.875 14.9434 1.05078 14.4746 1.46094 14.0645L16.4844 0.96875C16.8945 0.558594 17.3633 0.5 17.7734 0.5C18.1836 0.5 18.6523 0.617188 19.0039 0.910156L33.9688 14.0645C34.4375 14.4746 34.6719 14.9434 34.6133 15.4707Z" fill="black"/>
</g>
<defs>
<clipPath id="clip0_1185_321">
<rect width="33.75" height="30" fill="white" transform="translate(0.875 0.5)"/>
</clipPath>
</defs>
</svg>
