<svg width="37" height="37" viewBox="0 0 37 37" fill="none" xmlns="http://www.w3.org/2000/svg">
<path d="M26.2083 32.375L28.9833 35.1038C29.7541 35.8746 30.8333 35.2579 30.8333 34.3484V27.75L35.1499 22.5084C35.3217 22.2793 35.4263 22.007 35.452 21.7218C35.4777 21.4367 35.4235 21.15 35.2955 20.8939C35.1675 20.6378 34.9706 20.4225 34.7271 20.2719C34.4835 20.1214 34.2029 20.0417 33.9166 20.0417H23.1249C21.8916 20.0417 21.1208 21.5834 21.8916 22.5084L26.2083 27.75V32.375ZM23.1249 30.8334H3.08325V26.2084C3.08325 22.0459 11.2541 20.0417 15.4166 20.0417C16.3416 20.0417 17.4208 20.1959 18.6541 20.35C18.3458 21.275 18.4999 22.3542 18.8083 23.2792C17.7291 23.125 16.4958 22.9709 15.4166 22.9709C10.7916 22.9709 6.01242 25.2834 6.01242 26.2084V27.9042H22.3541L23.1249 28.8292V30.8334ZM15.4166 6.16669C12.0249 6.16669 9.24992 8.94169 9.24992 12.3334C9.24992 15.725 12.0249 18.5 15.4166 18.5C18.8083 18.5 21.5833 15.725 21.5833 12.3334C21.5833 8.94169 18.8083 6.16669 15.4166 6.16669ZM15.4166 15.4167C13.7208 15.4167 12.3333 14.0292 12.3333 12.3334C12.3333 10.6375 13.7208 9.25002 15.4166 9.25002C17.1124 9.25002 18.4999 10.6375 18.4999 12.3334C18.4999 14.0292 17.1124 15.4167 15.4166 15.4167Z" fill="#737373"/>
</svg>
