<svg width="22" height="25" viewBox="0 0 22 25" fill="none" xmlns="http://www.w3.org/2000/svg">
<g clip-path="url(#clip0_1173_2)">
<path d="M7.03125 7.03125V9.375H14.8438V7.03125C14.8438 4.87305 13.0957 3.125 10.9375 3.125C8.7793 3.125 7.03125 4.87305 7.03125 7.03125ZM3.90625 9.375V7.03125C3.90625 3.14941 7.05566 0 10.9375 0C14.8193 0 17.9688 3.14941 17.9688 7.03125V9.375H18.75C20.4736 9.375 21.875 10.7764 21.875 12.5V21.875C21.875 23.5986 20.4736 25 18.75 25H3.125C1.40137 25 0 23.5986 0 21.875V12.5C0 10.7764 1.40137 9.375 3.125 9.375H3.90625Z" fill="#FAFAFA"/>
</g>
<defs>
<clipPath id="clip0_1173_2">
<rect width="21.875" height="25" fill="white"/>
</clipPath>
</defs>
</svg>
