<svg width="28" height="28" viewBox="0 0 28 28" fill="none" xmlns="http://www.w3.org/2000/svg">
<path d="M25.3897 7.95729C24.7577 3.89408 20.8819 0.995013 16.8112 1.54164C12.1712 2.16452 9.17338 6.96498 10.3182 11.5077C10.3193 11.512 10.3209 11.5158 10.3219 11.5195C7.53832 14.3031 4.25962 17.5775 1.48673 20.3424C1.48619 20.3429 1.48566 20.3429 1.48566 20.3435C1.49479 21.8142 1.4964 23.9964 1.48512 25.4843C2.24761 25.4699 3.38973 25.4806 4.11141 25.4806C4.948 25.4806 5.78513 25.4682 6.62172 25.494C9.4177 22.6884 12.7893 19.3227 15.6089 16.4945C16.5083 16.7211 17.7106 16.9547 18.5805 16.8623C22.9997 16.3935 26.0743 12.362 25.3897 7.95729ZM18.3984 15.1612C17.5237 15.2595 16.3032 15.1655 15.0875 14.6012C14.0259 15.6676 12.3404 17.3429 11.6021 18.092C11.2965 17.7843 10.7209 17.2017 10.4234 16.9026C10.149 17.2081 9.53153 17.8326 9.2115 18.1204C9.52079 18.4286 10.0379 18.942 10.388 19.2905C10.0497 19.6288 9.38655 20.2919 9.02356 20.6544C8.7336 20.3574 8.16496 19.7979 7.85567 19.4838C7.5206 19.8188 6.92511 20.4165 6.6475 20.6941C6.90202 20.9449 7.48301 21.5339 7.82023 21.8663C7.28702 22.3936 6.43915 23.2441 5.93924 23.7467C5.1542 23.7451 3.93529 23.7446 3.2222 23.7505C3.2265 23.3317 3.2222 22.7018 3.22274 22.363C3.22327 22.0902 3.23294 21.4367 3.22596 21.0179C5.89091 18.3604 9.73397 14.5136 12.3517 11.8959C12.2282 11.5297 12.1235 11.222 12.0622 11.0196C10.9647 7.38918 13.2484 3.75501 17.0034 3.25241C20.687 2.75948 23.6526 5.63975 23.7697 8.97216C23.8739 11.9636 21.7002 14.7902 18.3984 15.1612Z" fill="black"/>
<path d="M17.782 7C16.8014 7.00224 16.0096 7.7952 16.0001 8.7836C15.9906 9.76024 16.7897 10.556 17.7803 10.5588C18.7799 10.5616 19.5701 9.78712 19.5751 8.8004C19.5796 7.80528 18.7754 6.99832 17.782 7Z" fill="black"/>
</svg>
