<svg width="24" height="24" viewBox="0 0 24 24" fill="none" xmlns="http://www.w3.org/2000/svg">
<path d="M5.99984 19H17.9998L16.5748 9H7.42484L5.99984 19ZM11.9998 7C12.2832 7 12.5208 6.90433 12.7128 6.713C12.9042 6.521 12.9998 6.28333 12.9998 6C12.9998 5.71667 12.9042 5.479 12.7128 5.287C12.5208 5.09567 12.2832 5 11.9998 5C11.7165 5 11.4792 5.09567 11.2878 5.287C11.0958 5.479 10.9998 5.71667 10.9998 6C10.9998 6.28333 11.0958 6.521 11.2878 6.713C11.4792 6.90433 11.7165 7 11.9998 7ZM14.8248 7H16.5748C17.0748 7 17.5082 7.16667 17.8748 7.5C18.2415 7.83333 18.4665 8.24167 18.5498 8.725L19.9748 18.725C20.0582 19.325 19.9042 19.854 19.5128 20.312C19.1208 20.7707 18.6165 21 17.9998 21H5.99984C5.38318 21 4.87918 20.7707 4.48784 20.312C4.09584 19.854 3.94151 19.325 4.02484 18.725L5.44984 8.725C5.53318 8.24167 5.75818 7.83333 6.12484 7.5C6.49151 7.16667 6.92484 7 7.42484 7H9.17484C9.12484 6.83333 9.08318 6.67067 9.04984 6.512C9.01651 6.354 8.99984 6.18333 8.99984 6C8.99984 5.16667 9.29151 4.45833 9.87484 3.875C10.4582 3.29167 11.1665 3 11.9998 3C12.8332 3 13.5415 3.29167 14.1248 3.875C14.7082 4.45833 14.9998 5.16667 14.9998 6C14.9998 6.18333 14.9832 6.354 14.9498 6.512C14.9165 6.67067 14.8748 6.83333 14.8248 7ZM5.99984 19H17.9998H5.99984Z" fill="#D5A068"/>
</svg>
