<svg width="23" height="23" viewBox="0 0 23 23" fill="none" xmlns="http://www.w3.org/2000/svg">
<path d="M16.5312 14.7452C16.5312 11.4281 13.8144 11.0501 11.6315 10.7467C9.25245 10.4161 7.90623 10.1286 7.90623 8.08019C7.90623 6.36094 9.70814 5.75 11.2513 5.75C12.0203 5.72516 12.7842 5.88347 13.4801 6.21188C14.1759 6.5403 14.7837 7.0294 15.2533 7.63888L16.3717 6.73612C15.8687 6.08937 15.2429 5.5484 14.5302 5.14431C13.8175 4.74022 13.032 4.48099 12.2187 4.3815V2.15625H10.7812V4.32831C8.18295 4.48644 6.46873 5.95269 6.46873 8.08019C6.46873 11.4799 9.22155 11.863 11.4331 12.1699C13.7712 12.4955 15.0937 12.7751 15.0937 14.7452C15.0937 16.9244 12.8419 17.25 11.5 17.25C9.03467 17.25 7.99392 16.5571 7.02792 15.3611L5.90955 16.2639C6.47934 17.0147 7.21631 17.6225 8.06196 18.0388C8.90762 18.4551 9.83867 18.6686 10.7812 18.6623V20.8438H12.2187V18.6552C14.8968 18.4367 16.5312 16.9826 16.5312 14.7452Z" fill="white"/>
</svg>
