<svg width="27" height="27" viewBox="0 0 27 27" fill="none" xmlns="http://www.w3.org/2000/svg">
<path d="M5.0625 10.125C5.0625 9.67745 5.24029 9.24823 5.55676 8.93176C5.87322 8.61529 6.30245 8.4375 6.75 8.4375H8.4375C8.66128 8.4375 8.87589 8.5264 9.03412 8.68463C9.19236 8.84286 9.28125 9.05747 9.28125 9.28125C9.28125 9.50503 9.19236 9.71964 9.03412 9.87787C8.87589 10.0361 8.66128 10.125 8.4375 10.125H6.75V11.8125C6.75 12.0363 6.66111 12.2509 6.50287 12.4091C6.34464 12.5674 6.13003 12.6562 5.90625 12.6562C5.68247 12.6562 5.46786 12.5674 5.30963 12.4091C5.1514 12.2509 5.0625 12.0363 5.0625 11.8125V10.125ZM21.9375 10.125C21.9375 9.67745 21.7597 9.24823 21.4432 8.93176C21.1268 8.61529 20.6976 8.4375 20.25 8.4375H18.5625C18.3387 8.4375 18.1241 8.5264 17.9659 8.68463C17.8076 8.84286 17.7188 9.05747 17.7188 9.28125C17.7188 9.50503 17.8076 9.71964 17.9659 9.87787C18.1241 10.0361 18.3387 10.125 18.5625 10.125H20.25V11.8125C20.25 12.0363 20.3389 12.2509 20.4971 12.4091C20.6554 12.5674 20.87 12.6562 21.0938 12.6562C21.3175 12.6562 21.5321 12.5674 21.6904 12.4091C21.8486 12.2509 21.9375 12.0363 21.9375 11.8125V10.125ZM21.9375 16.875C21.9375 17.3226 21.7597 17.7518 21.4432 18.0682C21.1268 18.3847 20.6976 18.5625 20.25 18.5625H18.5625C18.3387 18.5625 18.1241 18.4736 17.9659 18.3154C17.8076 18.1571 17.7188 17.9425 17.7188 17.7188C17.7188 17.495 17.8076 17.2804 17.9659 17.1221C18.1241 16.9639 18.3387 16.875 18.5625 16.875H20.25V15.1875C20.25 14.9637 20.3389 14.7491 20.4971 14.5909C20.6554 14.4326 20.87 14.3438 21.0938 14.3438C21.3175 14.3438 21.5321 14.4326 21.6904 14.5909C21.8486 14.7491 21.9375 14.9637 21.9375 15.1875V16.875ZM5.0625 16.875C5.0625 17.3226 5.24029 17.7518 5.55676 18.0682C5.87322 18.3847 6.30245 18.5625 6.75 18.5625H8.4375C8.66128 18.5625 8.87589 18.4736 9.03412 18.3154C9.19236 18.1571 9.28125 17.9425 9.28125 17.7188C9.28125 17.495 9.19236 17.2804 9.03412 17.1221C8.87589 16.9639 8.66128 16.875 8.4375 16.875H6.75V15.1875C6.75 14.9637 6.66111 14.7491 6.50287 14.5909C6.34464 14.4326 6.13003 14.3438 5.90625 14.3438C5.68247 14.3438 5.46786 14.4326 5.30963 14.5909C5.1514 14.7491 5.0625 14.9637 5.0625 15.1875V16.875ZM5.0625 5.0625C4.16739 5.0625 3.30895 5.41808 2.67601 6.05101C2.04308 6.68395 1.6875 7.54239 1.6875 8.4375V18.5625C1.6875 19.4576 2.04308 20.316 2.67601 20.949C3.30895 21.5819 4.16739 21.9375 5.0625 21.9375H21.9375C22.8326 21.9375 23.691 21.5819 24.324 20.949C24.9569 20.316 25.3125 19.4576 25.3125 18.5625V8.4375C25.3125 7.54239 24.9569 6.68395 24.324 6.05101C23.691 5.41808 22.8326 5.0625 21.9375 5.0625H5.0625ZM21.9375 6.75C22.3851 6.75 22.8143 6.92779 23.1307 7.24426C23.4472 7.56073 23.625 7.98995 23.625 8.4375V18.5625C23.625 19.0101 23.4472 19.4393 23.1307 19.7557C22.8143 20.0722 22.3851 20.25 21.9375 20.25H5.0625C4.61495 20.25 4.18572 20.0722 3.86926 19.7557C3.55279 19.4393 3.375 19.0101 3.375 18.5625V8.4375C3.375 7.98995 3.55279 7.56073 3.86926 7.24426C4.18572 6.92779 4.61495 6.75 5.0625 6.75H21.9375Z" fill="#D5A068"/>
</svg>
