<svg width="29" height="29" viewBox="0 0 29 29" fill="none" xmlns="http://www.w3.org/2000/svg">
<path d="M14.5 4.83333C15.7819 4.83333 17.0113 5.34255 17.9177 6.24898C18.8242 7.1554 19.3334 8.38478 19.3334 9.66666C19.3334 10.9485 18.8242 12.1779 17.9177 13.0843C17.0113 13.9908 15.7819 14.5 14.5 14.5C13.2182 14.5 11.9888 13.9908 11.0824 13.0843C10.1759 12.1779 9.66671 10.9485 9.66671 9.66666C9.66671 8.38478 10.1759 7.1554 11.0824 6.24898C11.9888 5.34255 13.2182 4.83333 14.5 4.83333ZM14.5 7.24999C13.8591 7.24999 13.2444 7.50461 12.7912 7.95782C12.338 8.41103 12.0834 9.02572 12.0834 9.66666C12.0834 10.3076 12.338 10.9223 12.7912 11.3755C13.2444 11.8287 13.8591 12.0833 14.5 12.0833C15.141 12.0833 15.7557 11.8287 16.2089 11.3755C16.6621 10.9223 16.9167 10.3076 16.9167 9.66666C16.9167 9.02572 16.6621 8.41103 16.2089 7.95782C15.7557 7.50461 15.141 7.24999 14.5 7.24999ZM14.5 15.7083C17.7263 15.7083 24.1667 17.3154 24.1667 20.5417V24.1667H4.83337V20.5417C4.83337 17.3154 11.2738 15.7083 14.5 15.7083ZM14.5 18.0042C10.9113 18.0042 7.12921 19.7683 7.12921 20.5417V21.8708H21.8709V20.5417C21.8709 19.7683 18.0888 18.0042 14.5 18.0042Z" fill="#D5A068"/>
</svg>
