<svg width="27" height="20" viewBox="0 0 27 20" fill="none" xmlns="http://www.w3.org/2000/svg">
<path d="M3.6 19.5V20.4H5.4V19.5H3.6ZM12.6 19.5V20.4H14.4V19.5H12.6ZM5.4 19.5V18.6H3.6V19.5H5.4ZM12.6 18.6V19.5H14.4V18.6H12.6ZM9 15C9.95478 15 10.8705 15.3793 11.5456 16.0544C12.2207 16.7295 12.6 17.6452 12.6 18.6H14.4C14.4 17.1678 13.8311 15.7943 12.8184 14.7816C11.8057 13.7689 10.4322 13.2 9 13.2V15ZM5.4 18.6C5.4 17.6452 5.77928 16.7295 6.45442 16.0544C7.12955 15.3793 8.04522 15 9 15V13.2C7.56783 13.2 6.19432 13.7689 5.18162 14.7816C4.16893 15.7943 3.6 17.1678 3.6 18.6H5.4ZM9 4.19998C8.04522 4.19998 7.12955 4.57926 6.45442 5.25439C5.77928 5.92952 5.4 6.8452 5.4 7.79998H7.2C7.2 7.32259 7.38964 6.86475 7.72721 6.52718C8.06477 6.18962 8.52261 5.99998 9 5.99998V4.19998ZM12.6 7.79998C12.6 6.8452 12.2207 5.92952 11.5456 5.25439C10.8705 4.57926 9.95478 4.19998 9 4.19998V5.99998C9.47739 5.99998 9.93523 6.18962 10.2728 6.52718C10.6104 6.86475 10.8 7.32259 10.8 7.79998H12.6ZM9 11.4C9.95478 11.4 10.8705 11.0207 11.5456 10.3456C12.2207 9.67043 12.6 8.75476 12.6 7.79998H10.8C10.8 8.27737 10.6104 8.7352 10.2728 9.07277C9.93523 9.41033 9.47739 9.59998 9 9.59998V11.4ZM9 9.59998C8.52261 9.59998 8.06477 9.41033 7.72721 9.07277C7.38964 8.7352 7.2 8.27737 7.2 7.79998H5.4C5.4 8.75476 5.77928 9.67043 6.45442 10.3456C7.12955 11.0207 8.04522 11.4 9 11.4V9.59998ZM2.7 2.39998H24.3V0.599976H2.7V2.39998ZM25.2 3.29998V17.7H27V3.29998H25.2ZM24.3 18.6H2.7V20.4H24.3V18.6ZM1.8 17.7V3.29998H0V17.7H1.8ZM2.7 18.6C2.46131 18.6 2.23239 18.5052 2.0636 18.3364C1.89482 18.1676 1.8 17.9387 1.8 17.7H0C0 18.4161 0.284463 19.1028 0.790812 19.6092C1.29716 20.1155 1.98392 20.4 2.7 20.4V18.6ZM25.2 17.7C25.2 17.9387 25.1052 18.1676 24.9364 18.3364C24.7676 18.5052 24.5387 18.6 24.3 18.6V20.4C25.0161 20.4 25.7028 20.1155 26.2092 19.6092C26.7155 19.1028 27 18.4161 27 17.7H25.2ZM24.3 2.39998C24.5387 2.39998 24.7676 2.4948 24.9364 2.66358C25.1052 2.83236 25.2 3.06128 25.2 3.29998H27C27 2.58389 26.7155 1.89714 26.2092 1.39079C25.7028 0.884439 25.0161 0.599976 24.3 0.599976V2.39998ZM2.7 0.599976C1.98392 0.599976 1.29716 0.884439 0.790812 1.39079C0.284463 1.89714 0 2.58389 0 3.29998H1.8C1.8 3.06128 1.89482 2.83236 2.0636 2.66358C2.23239 2.4948 2.46131 2.39998 2.7 2.39998V0.599976ZM16.2 7.79998H21.6V5.99998H16.2V7.79998ZM16.2 13.2H21.6V11.4H16.2V13.2Z" fill="#D6A068"/>
</svg>
