<svg width="20" height="20" viewBox="0 0 20 20" fill="none" xmlns="http://www.w3.org/2000/svg">
<g clip-path="url(#clip0_145_302)">
<path d="M11.25 6.875C11.25 6.70924 11.1842 6.55027 11.0669 6.43306C10.9497 6.31585 10.7908 6.25 10.625 6.25C10.4592 6.25 10.3003 6.31585 10.1831 6.43306C10.0658 6.55027 10 6.70924 10 6.875V8.75H8.125C7.95924 8.75 7.80027 8.81585 7.68306 8.93306C7.56585 9.05027 7.5 9.20924 7.5 9.375C7.5 9.54076 7.56585 9.69973 7.68306 9.81694C7.80027 9.93415 7.95924 10 8.125 10H10V11.875C10 12.0408 10.0658 12.1997 10.1831 12.3169C10.3003 12.4342 10.4592 12.5 10.625 12.5C10.7908 12.5 10.9497 12.4342 11.0669 12.3169C11.1842 12.1997 11.25 12.0408 11.25 11.875V10H13.125C13.2908 10 13.4497 9.93415 13.5669 9.81694C13.6842 9.69973 13.75 9.54076 13.75 9.375C13.75 9.20924 13.6842 9.05027 13.5669 8.93306C13.4497 8.81585 13.2908 8.75 13.125 8.75H11.25V6.875Z" fill="white"/>
<path d="M0.625 1.25C0.45924 1.25 0.300269 1.31585 0.183058 1.43306C0.065848 1.55027 0 1.70924 0 1.875C0 2.04076 0.065848 2.19973 0.183058 2.31694C0.300269 2.43415 0.45924 2.5 0.625 2.5H2.0125L2.51375 4.50875L4.38625 14.49C4.41306 14.6332 4.48907 14.7626 4.60114 14.8557C4.71321 14.9488 4.85429 14.9999 5 15H6.25C5.58696 15 4.95107 15.2634 4.48223 15.7322C4.01339 16.2011 3.75 16.837 3.75 17.5C3.75 18.163 4.01339 18.7989 4.48223 19.2678C4.95107 19.7366 5.58696 20 6.25 20C6.91304 20 7.54893 19.7366 8.01777 19.2678C8.48661 18.7989 8.75 18.163 8.75 17.5C8.75 16.837 8.48661 16.2011 8.01777 15.7322C7.54893 15.2634 6.91304 15 6.25 15H15C14.337 15 13.7011 15.2634 13.2322 15.7322C12.7634 16.2011 12.5 16.837 12.5 17.5C12.5 18.163 12.7634 18.7989 13.2322 19.2678C13.7011 19.7366 14.337 20 15 20C15.663 20 16.2989 19.7366 16.7678 19.2678C17.2366 18.7989 17.5 18.163 17.5 17.5C17.5 16.837 17.2366 16.2011 16.7678 15.7322C16.2989 15.2634 15.663 15 15 15H16.25C16.3957 14.9999 16.5368 14.9488 16.6489 14.8557C16.7609 14.7626 16.8369 14.6332 16.8638 14.49L18.7388 4.49C18.7556 4.3998 18.7524 4.30698 18.7294 4.21815C18.7064 4.12931 18.6641 4.04664 18.6055 3.976C18.5469 3.90537 18.4735 3.8485 18.3904 3.80944C18.3074 3.77038 18.2168 3.75008 18.125 3.75H3.6125L3.10625 1.72375C3.07251 1.58848 2.99452 1.46837 2.88466 1.38253C2.77481 1.29669 2.63941 1.25004 2.5 1.25H0.625ZM5.51875 13.75L3.8775 5H17.3725L15.7312 13.75H5.51875ZM7.5 17.5C7.5 17.8315 7.3683 18.1495 7.13388 18.3839C6.89946 18.6183 6.58152 18.75 6.25 18.75C5.91848 18.75 5.60054 18.6183 5.36612 18.3839C5.1317 18.1495 5 17.8315 5 17.5C5 17.1685 5.1317 16.8505 5.36612 16.6161C5.60054 16.3817 5.91848 16.25 6.25 16.25C6.58152 16.25 6.89946 16.3817 7.13388 16.6161C7.3683 16.8505 7.5 17.1685 7.5 17.5ZM16.25 17.5C16.25 17.8315 16.1183 18.1495 15.8839 18.3839C15.6495 18.6183 15.3315 18.75 15 18.75C14.6685 18.75 14.3505 18.6183 14.1161 18.3839C13.8817 18.1495 13.75 17.8315 13.75 17.5C13.75 17.1685 13.8817 16.8505 14.1161 16.6161C14.3505 16.3817 14.6685 16.25 15 16.25C15.3315 16.25 15.6495 16.3817 15.8839 16.6161C16.1183 16.8505 16.25 17.1685 16.25 17.5Z" fill="white"/>
</g>
<defs>
<clipPath id="clip0_145_302">
<rect width="20" height="20" fill="white"/>
</clipPath>
</defs>
</svg>
