<svg width="25" height="25" viewBox="0 0 25 25" fill="none" xmlns="http://www.w3.org/2000/svg">
<path d="M9.57031 10.7422H12.6953V19.1406" stroke="white" stroke-width="2" stroke-linecap="round" stroke-linejoin="round"/>
<path d="M9.13086 19.3359H15.8691" stroke="white" stroke-width="2" stroke-miterlimit="10" stroke-linecap="round"/>
<path d="M12.5 7.8125C12.191 7.8125 11.8889 7.72086 11.6319 7.54917C11.375 7.37748 11.1747 7.13345 11.0564 6.84794C10.9382 6.56243 10.9072 6.24827 10.9675 5.94517C11.0278 5.64208 11.1766 5.36367 11.3951 5.14515C11.6137 4.92663 11.8921 4.77781 12.1952 4.71752C12.4983 4.65723 12.8124 4.68818 13.0979 4.80644C13.3835 4.9247 13.6275 5.12497 13.7992 5.38192C13.9709 5.63887 14.0625 5.94097 14.0625 6.25C14.0625 6.6644 13.8979 7.06183 13.6049 7.35486C13.3118 7.64788 12.9144 7.8125 12.5 7.8125Z" fill="white"/>
</svg>
