<svg width="28" height="28" viewBox="0 0 28 28" fill="none" xmlns="http://www.w3.org/2000/svg">
<path d="M4.66634 4.66675H23.333C23.9518 4.66675 24.5453 4.91258 24.9829 5.35017C25.4205 5.78775 25.6663 6.38124 25.6663 7.00008V21.0001C25.6663 21.6189 25.4205 22.2124 24.9829 22.65C24.5453 23.0876 23.9518 23.3334 23.333 23.3334H4.66634C4.0475 23.3334 3.45401 23.0876 3.01643 22.65C2.57884 22.2124 2.33301 21.6189 2.33301 21.0001V7.00008C2.33301 6.38124 2.57884 5.78775 3.01643 5.35017C3.45401 4.91258 4.0475 4.66675 4.66634 4.66675ZM4.66634 7.00008V21.0001H12.833V7.00008H4.66634ZM23.333 21.0001V7.00008H21.8863C22.1663 7.63008 22.108 8.24841 22.108 8.31841C22.0263 9.10008 21.478 9.91675 21.2797 10.2084L18.5613 13.1834L22.4347 13.1601L22.4463 14.5834L16.3797 14.5484L16.333 13.3817C16.333 13.3817 19.8913 9.61341 20.0663 9.27508C20.2297 8.94841 20.8947 7.00008 19.2497 7.00008C17.8147 7.05841 17.978 8.51675 17.978 8.51675L16.1813 8.52841C16.1813 8.52841 16.193 7.75841 16.6247 7.00008H15.1663V21.0001H18.1763L18.1647 19.9967L19.2963 19.9851C19.2963 19.9851 20.358 19.7984 20.3697 18.7601C20.4163 17.5934 19.4247 17.5934 19.2497 17.5934C19.098 17.5934 18.0013 17.6517 18.0013 18.6084H16.228C16.228 18.6084 16.2747 16.2051 19.2497 16.2051C22.283 16.2051 22.1197 18.5617 22.1197 18.5617C22.1197 18.5617 22.1663 20.0201 20.8247 20.5684L21.4313 21.0001H23.333ZM10.4063 18.6667H8.65634V11.9001L6.55634 12.5534V11.1184L10.2197 9.81175H10.4063V18.6667Z" fill="#D5A068"/>
</svg>
