<svg width="28" height="28" viewBox="0 0 28 28" fill="none" xmlns="http://www.w3.org/2000/svg">
<path d="M19.25 24.4999C10.5656 24.4999 3.5 17.4343 3.5 8.74995C3.50328 7.26032 4.04739 5.82257 5.03117 4.70401C6.01494 3.58545 7.37143 2.86219 8.84844 2.6687C9.22496 2.62695 9.60499 2.70622 9.93341 2.89502C10.2618 3.08382 10.5216 3.37232 10.675 3.7187L12.8734 8.84839C12.9875 9.11465 13.0332 9.40518 13.0065 9.6936C12.9797 9.98202 12.8814 10.2592 12.7203 10.4999L10.9047 13.2781C11.7268 14.9466 13.0815 16.2936 14.7547 17.1062L17.5 15.2796C17.7405 15.1175 18.0184 15.0194 18.3074 14.9945C18.5963 14.9696 18.8869 15.0188 19.1516 15.1374L24.2812 17.3249C24.6276 17.4784 24.9161 17.7381 25.1049 18.0665C25.2937 18.395 25.373 18.775 25.3313 19.1515C25.1378 20.6285 24.4145 21.985 23.2959 22.9688C22.1774 23.9526 20.7396 24.4967 19.25 24.4999ZM9.06719 4.40776C8.01166 4.54345 7.04179 5.05921 6.33915 5.85849C5.63651 6.65776 5.2493 7.68574 5.25 8.74995C5.2529 12.4621 6.72882 16.0214 9.3537 18.6462C11.9786 21.2711 15.5379 22.7471 19.25 22.7499C20.3142 22.7507 21.3422 22.3634 22.1415 21.6608C22.9407 20.9582 23.4565 19.9883 23.5922 18.9328L18.4625 16.7453L15.7281 18.5718C15.4765 18.7382 15.1862 18.8366 14.8853 18.8577C14.5845 18.8788 14.2833 18.8218 14.0109 18.6921C11.9732 17.7064 10.3249 16.0658 9.32969 14.0328C9.19847 13.7614 9.13959 13.4607 9.15875 13.1598C9.17791 12.8589 9.27447 12.5681 9.43906 12.3156L11.2656 9.53745L9.06719 4.40776Z" fill="#D6A068"/>
</svg>
