<svg width="30" height="30" viewBox="0 0 30 30" fill="none" xmlns="http://www.w3.org/2000/svg">
<path d="M2.5 26.25H27.5" stroke="#D5A068" stroke-width="2" stroke-linecap="round" stroke-linejoin="round"/>
<path d="M8.75 16.25H6.25C5.55964 16.25 5 16.8096 5 17.5V25C5 25.6904 5.55964 26.25 6.25 26.25H8.75C9.44036 26.25 10 25.6904 10 25V17.5C10 16.8096 9.44036 16.25 8.75 16.25Z" stroke="#D5A068" stroke-width="2" stroke-linejoin="round"/>
<path d="M7.5 21.25H8.125" stroke="#D5A068" stroke-width="2" stroke-linecap="square" stroke-linejoin="round"/>
<path d="M23.75 2.5H11.25C10.5596 2.5 10 3.05964 10 3.75V25C10 25.6904 10.5596 26.25 11.25 26.25H23.75C24.4404 26.25 25 25.6904 25 25V3.75C25 3.05964 24.4404 2.5 23.75 2.5Z" stroke="#D5A068" stroke-width="2" stroke-linejoin="round"/>
<path d="M13.75 6.25H16.25V8.75H13.75V6.25ZM18.75 6.25H21.25V8.75H18.75V6.25ZM13.75 10.625H16.25V13.125H13.75V10.625ZM18.75 10.625H21.25V13.125H18.75V10.625ZM18.75 15H21.25V17.5H18.75V15ZM18.75 19.375H21.25V21.875H18.75V19.375Z" fill="#D5A068"/>
</svg>
