<svg width="23" height="23" viewBox="0 0 23 23" fill="none" xmlns="http://www.w3.org/2000/svg">
<g clip-path="url(#clip0_145_306)">
<path d="M6.70829 10.5417V5.75004C6.70829 2.87504 8.62496 0.958374 11.5 0.958374C14.375 0.958374 16.2916 2.87504 16.2916 5.75004V10.5417M11.5 14.375V18.2084M11.5 22.0417C13.2791 22.0417 14.9854 21.3349 16.2435 20.0769C17.5015 18.8188 18.2083 17.1125 18.2083 15.3334C18.2083 13.5542 17.5015 11.8479 16.2435 10.5899C14.9854 9.33181 13.2791 8.62504 11.5 8.62504C9.7208 8.62504 8.01451 9.33181 6.75645 10.5899C5.49839 11.8479 4.79163 13.5542 4.79163 15.3334C4.79163 17.1125 5.49839 18.8188 6.75645 20.0769C8.01451 21.3349 9.7208 22.0417 11.5 22.0417V22.0417ZM11.5 15.3334C11.7541 15.3334 11.9979 15.2324 12.1776 15.0527C12.3573 14.873 12.4583 14.6292 12.4583 14.375C12.4583 14.1209 12.3573 13.8771 12.1776 13.6974C11.9979 13.5177 11.7541 13.4167 11.5 13.4167C11.2458 13.4167 11.002 13.5177 10.8223 13.6974C10.6426 13.8771 10.5416 14.1209 10.5416 14.375C10.5416 14.6292 10.6426 14.873 10.8223 15.0527C11.002 15.2324 11.2458 15.3334 11.5 15.3334V15.3334Z" stroke="white" stroke-width="2"/>
</g>
<defs>
<clipPath id="clip0_145_306">
<rect width="23" height="23" fill="white"/>
</clipPath>
</defs>
</svg>
