<svg width="18" height="18" viewBox="0 0 18 18" fill="none" xmlns="http://www.w3.org/2000/svg">
<path fill-rule="evenodd" clip-rule="evenodd" d="M13.125 15C13.6223 15 14.0992 14.8025 14.4508 14.4508C14.8025 14.0992 15 13.6223 15 13.125C15 12.6277 14.8025 12.1508 14.4508 11.7992C14.0992 11.4475 13.6223 11.25 13.125 11.25C12.6277 11.25 12.1508 11.4475 11.7992 11.7992C11.4475 12.1508 11.25 12.6277 11.25 13.125C11.25 13.6223 11.4475 14.0992 11.7992 14.4508C12.1508 14.8025 12.6277 15 13.125 15ZM13.125 15.75C13.8212 15.75 14.4889 15.4734 14.9812 14.9812C15.4734 14.4889 15.75 13.8212 15.75 13.125C15.75 12.4288 15.4734 11.7611 14.9812 11.2688C14.4889 10.7766 13.8212 10.5 13.125 10.5C12.4288 10.5 11.7611 10.7766 11.2688 11.2688C10.7766 11.7611 10.5 12.4288 10.5 13.125C10.5 13.8212 10.7766 14.4889 11.2688 14.9812C11.7611 15.4734 12.4288 15.75 13.125 15.75Z" fill="#D5A068"/>
<path fill-rule="evenodd" clip-rule="evenodd" d="M13.125 11.8125C13.2245 11.8125 13.3198 11.852 13.3902 11.9223C13.4605 11.9927 13.5 12.088 13.5 12.1875V12.9697L13.7651 13.2349C13.8334 13.3056 13.8712 13.4003 13.8704 13.4987C13.8695 13.597 13.8301 13.691 13.7606 13.7606C13.691 13.8301 13.597 13.8695 13.4987 13.8704C13.4003 13.8712 13.3056 13.8334 13.2349 13.7651L12.75 13.2803V12.1875C12.75 12.088 12.7895 11.9927 12.8598 11.9223C12.9302 11.852 13.0255 11.8125 13.125 11.8125ZM5.25 8.625H4.5V9.375H5.25V8.625ZM4.5 7.875C4.30109 7.875 4.11032 7.95402 3.96967 8.09467C3.82902 8.23532 3.75 8.42609 3.75 8.625V9.375C3.75 9.57391 3.82902 9.76468 3.96967 9.90533C4.11032 10.046 4.30109 10.125 4.5 10.125H5.25C5.44891 10.125 5.63968 10.046 5.78033 9.90533C5.92098 9.76468 6 9.57391 6 9.375V8.625C6 8.42609 5.92098 8.23532 5.78033 8.09467C5.63968 7.95402 5.44891 7.875 5.25 7.875H4.5ZM8.25 8.625H7.5V9.375H8.25V8.625ZM7.5 7.875C7.30109 7.875 7.11032 7.95402 6.96967 8.09467C6.82902 8.23532 6.75 8.42609 6.75 8.625V9.375C6.75 9.57391 6.82902 9.76468 6.96967 9.90533C7.11032 10.046 7.30109 10.125 7.5 10.125H8.25C8.44891 10.125 8.63968 10.046 8.78033 9.90533C8.92098 9.76468 9 9.57391 9 9.375V8.625C9 8.42609 8.92098 8.23532 8.78033 8.09467C8.63968 7.95402 8.44891 7.875 8.25 7.875H7.5ZM11.25 8.625H10.5V9.375H11.25V8.625ZM10.5 7.875C10.3011 7.875 10.1103 7.95402 9.96967 8.09467C9.82902 8.23532 9.75 8.42609 9.75 8.625V9.375C9.75 9.57391 9.82902 9.76468 9.96967 9.90533C10.1103 10.046 10.3011 10.125 10.5 10.125H11.25C11.4489 10.125 11.6397 10.046 11.7803 9.90533C11.921 9.76468 12 9.57391 12 9.375V8.625C12 8.42609 11.921 8.23532 11.7803 8.09467C11.6397 7.95402 11.4489 7.875 11.25 7.875H10.5ZM5.25 11.625H4.5V12.375H5.25V11.625ZM4.5 10.875C4.30109 10.875 4.11032 10.954 3.96967 11.0947C3.82902 11.2353 3.75 11.4261 3.75 11.625V12.375C3.75 12.5739 3.82902 12.7647 3.96967 12.9053C4.11032 13.046 4.30109 13.125 4.5 13.125H5.25C5.44891 13.125 5.63968 13.046 5.78033 12.9053C5.92098 12.7647 6 12.5739 6 12.375V11.625C6 11.4261 5.92098 11.2353 5.78033 11.0947C5.63968 10.954 5.44891 10.875 5.25 10.875H4.5ZM8.25 11.625H7.5V12.375H8.25V11.625ZM7.5 10.875C7.30109 10.875 7.11032 10.954 6.96967 11.0947C6.82902 11.2353 6.75 11.4261 6.75 11.625V12.375C6.75 12.5739 6.82902 12.7647 6.96967 12.9053C7.11032 13.046 7.30109 13.125 7.5 13.125H8.25C8.44891 13.125 8.63968 13.046 8.78033 12.9053C8.92098 12.7647 9 12.5739 9 12.375V11.625C9 11.4261 8.92098 11.2353 8.78033 11.0947C8.63968 10.954 8.44891 10.875 8.25 10.875H7.5Z" fill="#D5A068"/>
<path fill-rule="evenodd" clip-rule="evenodd" d="M3 4.5C3 4.40054 3.03951 4.30516 3.10984 4.23484C3.18016 4.16451 3.27554 4.125 3.375 4.125H5.25V3.375H3.375C3.07663 3.375 2.79048 3.49353 2.5795 3.7045C2.36853 3.91548 2.25 4.20163 2.25 4.5V13.5C2.25 13.7984 2.36853 14.0845 2.5795 14.2955C2.79048 14.5065 3.07663 14.625 3.375 14.625H10.9706C10.8107 14.3959 10.6885 14.1427 10.6088 13.875H3.375C3.27554 13.875 3.18016 13.8355 3.10984 13.7652C3.03951 13.6948 3 13.5995 3 13.5V4.5ZM12.75 10.5262C12.9987 10.4907 13.2513 10.4907 13.5 10.5262V4.5C13.5 4.20163 13.3815 3.91548 13.1705 3.7045C12.9595 3.49353 12.6734 3.375 12.375 3.375H11.25V4.125H12.375C12.4745 4.125 12.5698 4.16451 12.6402 4.23484C12.7105 4.30516 12.75 4.40054 12.75 4.5V10.5262ZM6 4.125H9.96112V3.375H6V4.125Z" fill="#D5A068"/>
<path fill-rule="evenodd" clip-rule="evenodd" d="M10.5 3.375H6V4.5C6 4.59946 5.96049 4.69484 5.89016 4.76516C5.81984 4.83549 5.72446 4.875 5.625 4.875C5.52554 4.875 5.43016 4.83549 5.35984 4.76516C5.28951 4.69484 5.25 4.59946 5.25 4.5V3.375H3.375C3.17609 3.375 2.98532 3.45402 2.84467 3.59467C2.70402 3.73532 2.625 3.92609 2.625 4.125V6C2.625 6.19891 2.70402 6.38968 2.84467 6.53033C2.98532 6.67098 3.17609 6.75 3.375 6.75H12.375C12.5739 6.75 12.7647 6.67098 12.9053 6.53033C13.046 6.38968 13.125 6.19891 13.125 6V4.125C13.125 3.92609 13.046 3.73532 12.9053 3.59467C12.7647 3.45402 12.5739 3.375 12.375 3.375H11.25V4.5C11.25 4.59946 11.2105 4.69484 11.1402 4.76516C11.0698 4.83549 10.9745 4.875 10.875 4.875C10.7755 4.875 10.6802 4.83549 10.6098 4.76516C10.5395 4.69484 10.5 4.59946 10.5 4.5V3.375Z" fill="#D5A068"/>
<path fill-rule="evenodd" clip-rule="evenodd" d="M13.5 6.75H3V6H13.5V6.75Z" fill="#D5A068"/>
<path d="M4.5 2.625C4.5 2.52554 4.53951 2.43016 4.60984 2.35984C4.68016 2.28951 4.77554 2.25 4.875 2.25C4.97446 2.25 5.06984 2.28951 5.14016 2.35984C5.21049 2.43016 5.25 2.52554 5.25 2.625V4.125C5.25 4.22446 5.21049 4.31984 5.14016 4.39016C5.06984 4.46049 4.97446 4.5 4.875 4.5C4.77554 4.5 4.68016 4.46049 4.60984 4.39016C4.53951 4.31984 4.5 4.22446 4.5 4.125V2.625ZM9.75 2.625C9.75 2.52554 9.78951 2.43016 9.85983 2.35984C9.93016 2.28951 10.0255 2.25 10.125 2.25C10.2245 2.25 10.3198 2.28951 10.3902 2.35984C10.4605 2.43016 10.5 2.52554 10.5 2.625V4.125C10.5 4.22446 10.4605 4.31984 10.3902 4.39016C10.3198 4.46049 10.2245 4.5 10.125 4.5C10.0255 4.5 9.93016 4.46049 9.85983 4.39016C9.78951 4.31984 9.75 4.22446 9.75 4.125V2.625Z" fill="#D5A068"/>
</svg>
