<svg width="29" height="29" viewBox="0 0 29 29" fill="none" xmlns="http://www.w3.org/2000/svg">
<path d="M19.3332 22.9583V25.375C19.3332 25.7174 19.2176 26.0041 18.9864 26.2353C18.7544 26.4673 18.4672 26.5833 18.1248 26.5833H3.62484C3.28248 26.5833 2.9957 26.4673 2.7645 26.2353C2.5325 26.0041 2.4165 25.7174 2.4165 25.375V15.7083C2.4165 15.366 2.5325 15.0788 2.7645 14.8468C2.9957 14.6156 3.28248 14.5 3.62484 14.5H7.24984V9.66666C7.24984 7.65277 7.9547 5.94097 9.36442 4.53125C10.7741 3.12153 12.4859 2.41666 14.4998 2.41666H19.3332C21.3471 2.41666 23.0589 3.12153 24.4686 4.53125C25.8783 5.94097 26.5832 7.65277 26.5832 9.66666V26.5833H24.1665V22.9583H19.3332ZM19.3332 20.5417H24.1665V9.66666C24.1665 8.3375 23.6932 7.19965 22.7467 6.25312C21.8002 5.30659 20.6623 4.83333 19.3332 4.83333H14.4998C13.1707 4.83333 12.0328 5.30659 11.0863 6.25312C10.1398 7.19965 9.6665 8.3375 9.6665 9.66666V14.5H18.1248C18.4672 14.5 18.7544 14.6156 18.9864 14.8468C19.2176 15.0788 19.3332 15.366 19.3332 15.7083V20.5417ZM12.0832 12.0833V9.66666H21.7498V12.0833H12.0832ZM10.8748 20.3604L16.9165 16.9167H4.83317L10.8748 20.3604ZM10.8748 22.475L4.83317 19.0312V24.1667H16.9165V19.0312L10.8748 22.475ZM4.83317 16.9167V24.1667V16.9167Z" fill="#D5A068"/>
</svg>
