<svg width="31" height="41" viewBox="0 0 31 41" fill="none" xmlns="http://www.w3.org/2000/svg">
<path d="M9.18994 5.20452V6.57565H21.879V5.20452V4.41754H9.18994V5.20452Z" fill="white"/>
<path d="M7.72952 4.41755V4.45812H2.78857V38.0143V38.0549H27.9395V38.0143V37.0408V37.0002V4.45812H23.1771V5.20453V7.21661C23.1771 7.38698 23.104 7.55736 22.9905 7.67095C22.8688 7.79264 22.7065 7.85755 22.5361 7.85755H8.54084C8.37046 7.85755 8.20008 7.79264 8.0865 7.67095C7.9648 7.55736 7.89989 7.38698 7.89989 7.21661V5.20453V3.57378H7.87556V4.41755H7.72952ZM4.90612 14.3157H25.8301V16.563H4.90612V14.3157ZM4.90612 19.4026H25.8301V21.65H4.90612V19.4026ZM4.90612 24.4896H25.8301V26.737H4.90612V24.4896ZM4.90612 29.5766H25.8301V31.824H4.90612V29.5766ZM25.8301 9.22868V11.476H4.90612V9.22868H25.8301Z" fill="white"/>
<path d="M25.8302 24.4896H4.90625V26.737H25.8302V24.4896Z" fill="#CCCCCC"/>
<path d="M25.8302 9.22868H4.90625V11.476H25.8302V9.22868Z" fill="#CCCCCC"/>
<path d="M25.8302 29.5766H4.90625V31.824H25.8302V29.5766Z" fill="#CCCCCC"/>
<path d="M25.8302 14.3157H4.90625V16.563H25.8302V14.3157Z" fill="#CCCCCC"/>
<path d="M25.8302 19.4026H4.90625V21.65H25.8302V19.4026Z" fill="#CCCCCC"/>
<path d="M29.4324 2.21075C29.043 1.8132 28.4913 1.59414 27.9396 1.59414H23.1771V2.38112V4.41754H27.9396V4.4581V37.0002V37.0407V38.0143V38.0549H2.78863V38.0143V4.4581V4.41754H7.72146H7.87561V3.57376V1.58603H2.78863C2.22882 1.58603 1.68524 1.8132 1.2958 2.20263C0.906369 2.60018 0.679199 3.14376 0.679199 3.70358V39.1177C0.679199 39.6775 0.906369 40.2211 1.2958 40.6106C1.69335 41 2.23693 41.2272 2.78863 41.2272H27.9396C28.4994 41.2272 29.043 41 29.4324 40.6106C29.8218 40.2211 30.049 39.6694 30.049 39.1177V3.70358C30.0571 3.14376 29.83 2.60018 29.4324 2.21075Z" fill="#4D4E50"/>
<path d="M9.18994 4.41754H21.879V2.38113V1.73207H9.18994V2.38113V4.41754Z" fill="#4D4E50"/>
<path d="M7.8999 7.2166C7.8999 7.38698 7.97292 7.55736 8.08651 7.67094C8.2082 7.79264 8.37047 7.85754 8.54085 7.85754H22.5199C22.6903 7.85754 22.8607 7.79264 22.9742 7.67094C23.0959 7.54924 23.1608 7.38698 23.1608 7.2166V5.20453V4.45811V4.41754V2.38113V1.58604V1.08302C23.1608 0.912639 23.0878 0.742262 22.9742 0.628677C22.8607 0.498866 22.6984 0.43396 22.528 0.43396H8.54085C8.37047 0.43396 8.2082 0.498866 8.08651 0.620564C7.96481 0.742262 7.8999 0.912639 7.8999 1.08302V2.38113V3.57377V5.21264V7.2166ZM9.1899 1.73207H21.879V2.38113V4.41754V5.21264V6.57566H9.1899V5.20453V4.41754V2.38113V1.73207Z" fill="#D5A068"/>
</svg>
