<svg width="40" height="40" viewBox="0 0 40 40" fill="none" xmlns="http://www.w3.org/2000/svg">
<g clip-path="url(#clip0_1145_150)">
<path d="M38.9141 0.312689C39.7031 0.703284 40.1172 1.37845 39.9688 2.05363L34.9688 25.2661C34.8516 25.8074 34.3906 26.2817 33.7188 26.5495C33.0469 26.8173 32.2422 26.8508 31.5313 26.6388L21.6641 23.7093L18.5313 27.8664C18.125 28.4076 17.2578 28.681 16.4219 28.5304C15.5859 28.3797 15 27.844 15 27.2302V21.8735C15 21.5778 15.1406 21.2876 15.3984 21.0533L28.3125 9.19035C28.5078 8.79417 27.8047 8.39242 27.2969 8.72164L13.3125 17.7555L10.8125 19.3681C10.0938 19.8313 9.07032 19.9596 8.17188 19.6918L1.53126 17.7165C0.656256 17.4542 0.0625059 16.8627 0.00781845 16.182C-0.0468691 15.5012 0.437506 14.8596 1.26563 14.5192L36.2656 0.23457C37.1016 -0.105805 38.1328 -0.0723257 38.9219 0.312689H38.9141Z" fill="black"/>
</g>
<defs>
<clipPath id="clip0_1145_150">
<rect width="40" height="40" fill="white"/>
</clipPath>
</defs>
</svg>
