<svg width="30" height="30" viewBox="0 0 30 30" fill="none" xmlns="http://www.w3.org/2000/svg">
<g clip-path="url(#clip0_1204_417)">
<path d="M27.6328 1.271C26.3496 -0.0122071 24.2754 -0.0122071 22.9922 1.271L21.2285 3.02881L26.9648 8.76514L28.7285 7.00146C30.0117 5.71826 30.0117 3.64404 28.7285 2.36084L27.6328 1.271ZM10.1016 14.1616C9.74414 14.519 9.46875 14.9585 9.31055 15.4448L7.57617 20.6479C7.40625 21.1519 7.54102 21.7085 7.91602 22.0894C8.29102 22.4702 8.84766 22.5991 9.35742 22.4292L14.5605 20.6948C15.041 20.5308 15.4805 20.2612 15.8438 19.9038L25.6465 10.0952L19.9043 4.35303L10.1016 14.1616ZM5.625 3.74951C2.51953 3.74951 0 6.26904 0 9.37451V24.3745C0 27.48 2.51953 29.9995 5.625 29.9995H20.625C23.7305 29.9995 26.25 27.48 26.25 24.3745V18.7495C26.25 17.7124 25.4121 16.8745 24.375 16.8745C23.3379 16.8745 22.5 17.7124 22.5 18.7495V24.3745C22.5 25.4116 21.6621 26.2495 20.625 26.2495H5.625C4.58789 26.2495 3.75 25.4116 3.75 24.3745V9.37451C3.75 8.3374 4.58789 7.49951 5.625 7.49951H11.25C12.2871 7.49951 13.125 6.66162 13.125 5.62451C13.125 4.5874 12.2871 3.74951 11.25 3.74951H5.625Z" fill="black"/>
</g>
<defs>
<clipPath id="clip0_1204_417">
<rect width="30" height="30" fill="white"/>
</clipPath>
</defs>
</svg>
