<svg width="50" height="40" viewBox="0 0 50 40" fill="none" xmlns="http://www.w3.org/2000/svg">
<path d="M14.375 6.875C14.375 9.28906 12.4141 11.25 10 11.25C7.58594 11.25 5.625 9.28906 5.625 6.875C5.625 4.46094 7.58594 2.5 10 2.5C12.4141 2.5 14.375 4.46094 14.375 6.875ZM5 19.1953C4.21875 20.0703 3.75 21.2344 3.75 22.5C3.75 23.7656 4.21875 24.9297 5 25.8047V19.1953ZM16.2812 15.3438C13.9609 17.3984 12.5 20.4062 12.5 23.75C12.5 26.4297 13.4375 28.8906 15 30.8203V32.5C15 33.8828 13.8828 35 12.5 35H7.5C6.11719 35 5 33.8828 5 32.5V30.4062C2.04688 29 0 25.9922 0 22.5C0 17.6641 3.91406 13.75 8.75 13.75H11.25C13.125 13.75 14.8594 14.3359 16.2812 15.3359V15.3438ZM35 32.5V30.8203C36.5625 28.8906 37.5 26.4297 37.5 23.75C37.5 20.4062 36.0391 17.3984 33.7188 15.3359C35.1406 14.3359 36.875 13.75 38.75 13.75H41.25C46.0859 13.75 50 17.6641 50 22.5C50 25.9922 47.9531 29 45 30.4062V32.5C45 33.8828 43.8828 35 42.5 35H37.5C36.1172 35 35 33.8828 35 32.5ZM44.375 6.875C44.375 9.28906 42.4141 11.25 40 11.25C37.5859 11.25 35.625 9.28906 35.625 6.875C35.625 4.46094 37.5859 2.5 40 2.5C42.4141 2.5 44.375 4.46094 44.375 6.875ZM45 19.1953V25.8125C45.7812 24.9297 46.25 23.7734 46.25 22.5078C46.25 21.2422 45.7812 20.0781 45 19.2031V19.1953ZM25 12.5C22.2422 12.5 20 10.2578 20 7.5C20 4.74219 22.2422 2.5 25 2.5C27.7578 2.5 30 4.74219 30 7.5C30 10.2578 27.7578 12.5 25 12.5ZM18.75 23.75C18.75 25.0156 19.2188 26.1719 20 27.0547V20.4453C19.2188 21.3281 18.75 22.4844 18.75 23.75ZM30 20.4453V27.0625C30.7812 26.1797 31.25 25.0234 31.25 23.7578C31.25 22.4922 30.7812 21.3281 30 20.4531V20.4453ZM35 23.75C35 27.2422 32.9531 30.25 30 31.6562V35C30 36.3828 28.8828 37.5 27.5 37.5H22.5C21.1172 37.5 20 36.3828 20 35V31.6562C17.0469 30.25 15 27.2422 15 23.75C15 18.9141 18.9141 15 23.75 15H26.25C31.0859 15 35 18.9141 35 23.75Z" fill="black"/>
</svg>
