<svg width="26" height="26" viewBox="0 0 26 26" fill="none" xmlns="http://www.w3.org/2000/svg">
<g clip-path="url(#clip0_1232_784)">
<path d="M8.80176 1.70032C8.42578 0.792117 7.43457 0.308718 6.48731 0.567507L2.19043 1.73938C1.34082 1.97376 0.75 2.74524 0.75 3.62415C0.75 15.7042 10.5449 25.4991 22.625 25.4991C23.5039 25.4991 24.2754 24.9083 24.5098 24.0587L25.6816 19.7618C25.9404 18.8146 25.457 17.8234 24.5488 17.4474L19.8613 15.4943C19.0654 15.1622 18.1426 15.3917 17.6006 16.0607L15.6279 18.4679C12.1904 16.8419 9.40723 14.0587 7.78125 10.6212L10.1885 8.65345C10.8574 8.10657 11.0869 7.1886 10.7549 6.3927L8.80176 1.7052V1.70032Z" fill="black"/>
</g>
<defs>
<clipPath id="clip0_1232_784">
<rect width="25" height="25" fill="white" transform="translate(0.75 0.5)"/>
</clipPath>
</defs>
</svg>
