<svg width="51" height="51" viewBox="0 0 51 51" fill="none" xmlns="http://www.w3.org/2000/svg">
<path d="M25.1501 13.7C17.5601 13.7 11.3801 19.99 11.3801 27.73C11.3801 33.21 14.4801 37.96 18.9801 40.27C18.9701 40.36 18.9601 40.45 18.9501 40.54L18.9401 40.6V47.65C18.9401 48.94 19.9701 49.99 21.2301 49.99H22.0001V50.04H24.2801H25.8301H28.3001V49.99H29.0501C30.3201 49.99 31.3401 48.94 31.3401 47.65V40.6V40.54C31.3301 40.45 31.3201 40.36 31.3101 40.27C35.8101 37.96 38.9101 33.21 38.9101 27.73C38.9201 20 32.7401 13.7 25.1501 13.7ZM30.4501 47.92C30.4501 48.08 30.3001 48.22 30.1101 48.22H28.2101H21.9001H20.1901C20.0001 48.22 19.8501 48.09 19.8501 47.92V47.4C19.8501 47.24 20.0001 47.1 20.1901 47.1H30.1101C30.3001 47.1 30.4501 47.23 30.4501 47.4V47.92ZM30.4501 45.27C30.4501 45.43 30.3001 45.57 30.1101 45.57H20.1901C20.0001 45.57 19.8501 45.44 19.8501 45.27V44.75C19.8501 44.59 20.0001 44.45 20.1901 44.45H30.1101C30.3001 44.45 30.4501 44.58 30.4501 44.75V45.27ZM30.4501 42.62C30.4501 42.78 30.3001 42.92 30.1101 42.92H20.1901C20.0001 42.92 19.8501 42.79 19.8501 42.62V42.1C19.8501 41.94 20.0001 41.8 20.1901 41.8H30.1101C30.3001 41.8 30.4501 41.93 30.4501 42.1V42.62ZM16.9901 25.49C16.9301 25.71 16.7401 25.87 16.5101 25.87H16.3801C16.2301 25.87 16.0801 25.8 15.9901 25.67C15.9001 25.55 15.8601 25.39 15.9001 25.24C16.8501 21.44 19.9101 18.49 23.6901 17.74C24.0001 17.68 24.2801 17.93 24.2801 18.24V18.37C24.2801 18.61 24.1101 18.81 23.8801 18.86C20.5501 19.53 17.8501 22.13 16.9901 25.49Z" fill="#4D4E50"/>
<path d="M26.1801 8.97V1.02C26.1801 0.45 25.7201 0 25.1601 0C24.5901 0 24.1301 0.46 24.1301 1.02V8.96C24.1301 9.53 24.5901 9.98 25.1601 9.98C25.7201 9.99 26.1801 9.53 26.1801 8.97Z" fill="#D6A068"/>
<path d="M9.22009 20.24C9.45009 19.72 9.22009 19.12 8.70009 18.89L1.44009 15.67C0.920086 15.44 0.320086 15.67 0.090086 16.19C-0.139914 16.71 0.090086 17.31 0.610086 17.54L7.87009 20.77C8.38009 20.99 8.99009 20.76 9.22009 20.24Z" fill="#D6A068"/>
<path d="M48.6701 15.67L41.4101 18.89C40.8901 19.12 40.6601 19.72 40.8901 20.24C41.1201 20.76 41.7301 20.99 42.2401 20.76L49.5001 17.53C50.0201 17.3 50.2501 16.7 50.0201 16.18C49.7901 15.67 49.1901 15.44 48.6701 15.67Z" fill="#D6A068"/>
</svg>
