<svg width="34" height="34" viewBox="0 0 34 34" fill="none" xmlns="http://www.w3.org/2000/svg">
<path d="M18.6506 13.3481L27.9759 3.69383C25.7055 1.58107 22.3139 0.153909 18.7342 0.08395L18.6506 13.3481Z" fill="#4D4E50"/>
<path d="M31.8202 25.0942L16.5891 17V0.00699588C16.4777 0.00699588 16.3662 0 16.2478 0C6.90168 0 0 7.61152 0 17C0 26.3885 7.57722 34 16.9234 34C23.4769 34 29.5707 30.1103 31.8202 25.0942Z" fill="#4D4E50"/>
<path d="M27.4117 7.27572L24.9742 9.79424L22.5227 17.6366L23.9365 18.3992L27.4117 7.27572Z" fill="#D6A068"/>
<path d="M24.2567 10.5358L21.8191 13.0543L20.6909 16.6502L22.1047 17.4128L24.2567 10.5358Z" fill="#D6A068"/>
<path d="M28.0244 20.5959L29.4382 21.3584L32.8646 10.3889C32.5721 9.67531 32.2379 8.98971 31.8548 8.3391L28.0244 20.5959Z" fill="#D6A068"/>
<path d="M33.8607 14.0547C33.7214 13.0403 33.4707 12.0469 33.1364 11.0885L29.8562 21.5753L31.27 22.3379L33.8607 14.0547Z" fill="#D6A068"/>
<path d="M33.979 15.237L31.6877 22.5617L32.5165 23.0095C33.5751 20.9457 33.9999 18.5181 33.9999 16.0346C33.9999 15.7687 33.9929 15.5029 33.979 15.237Z" fill="#D6A068"/>
<path d="M28.136 6.52716L24.3613 18.6161L25.7681 19.3786L30.0164 5.7856C29.8283 5.57572 29.6403 5.37284 29.4453 5.16996L28.136 6.52716Z" fill="#D6A068"/>
<path d="M20.2731 16.4263L21.0949 13.7959L19.1379 15.8107L20.2731 16.4263Z" fill="#D6A068"/>
<path d="M26.1929 19.6095L27.6066 20.372L31.5345 7.80041C31.1794 7.24074 30.7963 6.70906 30.3784 6.20535L26.1929 19.6095Z" fill="#D6A068"/>
</svg>
