<svg id="Layer_1" data-name="Layer 1" xmlns="http://www.w3.org/2000/svg" viewBox="0 0 1124.44 1051.44"><defs><style>.cls-1{fill:#087498;}.cls-2{fill:none;}.cls-3{fill:#c99e44;}.cls-4{fill:#ae7f2c;}.cls-5{fill:#337caa;fill-opacity:0.47;}.cls-6{fill:#bd8d2d;}.cls-7{fill:#d8b15d;}</style></defs><title>revver-icon</title><polygon class="cls-1" points="225.17 520.3 337.99 456.78 337.99 456.78 225.17 520.3"/><polygon class="cls-2" points="789.63 593.17 789.63 593.17 785.9 595.27 942.69 873.62 789.63 593.17 789.63 593.17"/><path class="cls-3" d="M696.58,777c23.61,36.24,45.9,70.49,53.63,113.13a225.28,225.28,0,0,1-38.12,170.22c-35.09,49-88.65,81.21-150.82,90.59a168.6,168.6,0,0,1-31.81,1.86c-85.51-2.91-158.6-49.28-195.48-124-46.84-95-19.56-210.4,64.86-274.39,4.54-3.45,9.26-6.64,14.11-9.77l112.82-63.52L360.93,631.28l-15.69,10.15C198.38,736.32,146,926.27,223.4,1083.26A344.68,344.68,0,0,0,873.58,981.18a348.67,348.67,0,0,0,3.91-53.89c-2.89-67.65-25-113.75-50-155.12l-163.91-49.5C674.14,742.23,685.56,760.07,696.58,777Z" transform="translate(-187.78 -224.28)"/><path class="cls-4" d="M977.41,817.45l153.06,280.44a96.11,96.11,0,0,0,83.65,48.91h85.28L1141.9,867.12,977.41,817.45Z" transform="translate(-187.78 -224.28)"/><polygon class="cls-5" points="337.99 456.78 338.29 456.61 338.29 456.61 337.99 456.78 337.99 456.78"/><polygon class="cls-5" points="878.38 543.22 789.63 593.17 789.63 593.17 878.38 543.22"/><path class="cls-6" d="M1276.73,416.74A344.69,344.69,0,0,0,626.54,518.8c-3.18,21.58-4.37,38.07-3.89,53.46,2.06,64.12,19.63,111,40.92,150.41l163.91,49.5c-5.55-9.19-11.2-18.23-16.86-27.13-25.1-39.43-51-80.18-60.67-135.26a223.44,223.44,0,0,1,174.1-258,202.66,202.66,0,0,1,61.52-3.59c78.77,7.49,146.28,53.5,180.59,123.09,48.87,99.07,16.47,220.21-75.37,281.76l-24.63,14.47-88.75,50,164.49,49.67,15.55-10.23C1302.18,761.57,1353.47,572.35,1276.73,416.74Z" transform="translate(-187.78 -224.28)"/><path class="cls-7" d="M526.07,680.89,369.73,393.25A96,96,0,0,0,286.2,344.4l-85.77,0,160.5,286.93,164.84,49.78Z" transform="translate(-187.78 -224.28)"/></svg>