<svg width="28" height="28" viewBox="0 0 28 28" fill="none" xmlns="http://www.w3.org/2000/svg">
<g clip-path="url(#clip0_1_14)">
<path d="M18.8538 15.6606L18.7742 15.7054L22.1207 21.6465L18.8538 15.6606Z" fill="black"/>
<path d="M12.8598 14.7972C13.3637 15.5707 13.8395 16.3018 14.0045 17.2119C14.1172 17.8411 14.1033 18.4866 13.9636 19.1104C13.8239 19.7342 13.5612 20.3239 13.1908 20.845C12.4419 21.8909 11.2987 22.5784 9.97175 22.7786C9.7472 22.8132 9.51987 22.8265 9.2928 22.8183C7.46768 22.7562 5.90765 21.7665 5.12049 20.1716C4.12074 18.144 4.703 15.6809 6.50486 14.3151C6.60176 14.2414 6.7025 14.1733 6.80602 14.1065L9.21404 12.7508L5.69571 11.687L5.36082 11.9036C2.22625 13.929 1.10825 17.9832 2.76027 21.334C3.45366 22.7413 4.57874 23.89 5.97125 24.6125C7.36375 25.335 8.95076 25.5935 10.5006 25.3502C12.0504 25.1069 13.4818 24.3745 14.5859 23.26C15.69 22.1455 16.4089 20.7073 16.6377 19.1552C16.6952 18.7746 16.7231 18.39 16.7211 18.005C16.6595 16.5611 16.1875 15.5771 15.6539 14.6941L12.1555 13.6376C12.3808 14.0551 12.6246 14.4359 12.8598 14.7972Z" fill="black"/>
<path d="M18.8538 15.6606L22.1207 21.6463C22.2992 21.9628 22.5585 22.2263 22.8723 22.4097C23.186 22.5931 23.5428 22.6899 23.9062 22.6902H25.7264L22.3647 16.7207L18.8538 15.6606Z" fill="black"/>
<path d="M25.2425 7.10785C24.5491 5.70066 23.424 4.55196 22.0315 3.82945C20.6391 3.10694 19.0521 2.84845 17.5023 3.09172C15.9525 3.33499 14.5211 4.06728 13.4169 5.18168C12.3128 6.29608 11.5938 7.73424 11.3649 9.28621C11.297 9.74682 11.2716 10.0988 11.2818 10.4273C11.3258 11.7958 11.7008 12.7964 12.1552 13.6376L15.6537 14.6941C15.5353 14.498 15.4147 14.305 15.2939 14.1151C14.7581 13.2735 14.2053 12.4037 13.9989 11.2281C13.7807 10.0072 14.0467 8.74934 14.7404 7.72128C15.4341 6.69323 16.5011 5.97586 17.7149 5.72134C18.1461 5.62902 18.589 5.60318 19.028 5.64472C20.7093 5.80459 22.1502 6.78662 22.8825 8.27195C23.9256 10.3865 23.234 12.9721 21.2738 14.2858L20.7481 14.5947L18.8538 15.6619L22.3647 16.722L22.6966 16.5037C25.7857 14.4679 26.8804 10.4292 25.2425 7.10785Z" fill="black"/>
<path d="M9.22045 12.7459L5.88353 6.6065C5.7053 6.2904 5.44633 6.0273 5.13308 5.84411C4.81983 5.66091 4.46355 5.5642 4.10067 5.56384H2.27L5.69571 11.6881L9.21404 12.7506L9.22045 12.7459Z" fill="black"/>
</g>
<defs>
<clipPath id="clip0_1_14">
<rect width="24" height="22.4419" fill="white" transform="translate(2 3)"/>
</clipPath>
</defs>
</svg>
