<svg width="26" height="25" viewBox="0 0 26 25" fill="none" xmlns="http://www.w3.org/2000/svg">
<g clip-path="url(#clip0_1185_338)">
<path d="M8.3125 4.6875C9.17676 4.6875 9.875 3.98926 9.875 3.125C9.875 2.26074 9.17676 1.5625 8.3125 1.5625H5.1875C2.59961 1.5625 0.5 3.66211 0.5 6.25V18.75C0.5 21.3379 2.59961 23.4375 5.1875 23.4375H8.3125C9.17676 23.4375 9.875 22.7393 9.875 21.875C9.875 21.0107 9.17676 20.3125 8.3125 20.3125H5.1875C4.32324 20.3125 3.625 19.6143 3.625 18.75V6.25C3.625 5.38574 4.32324 4.6875 5.1875 4.6875H8.3125ZM25.1338 13.3496C25.3682 13.1299 25.5 12.8223 25.5 12.5C25.5 12.1777 25.3682 11.8701 25.1338 11.6504L18.1025 5.00977C17.7607 4.6875 17.2627 4.59961 16.833 4.78516C16.4033 4.9707 16.125 5.39551 16.125 5.85938V9.375H9.875C9.01074 9.375 8.3125 10.0732 8.3125 10.9375V14.0625C8.3125 14.9268 9.01074 15.625 9.875 15.625H16.125V19.1406C16.125 19.6094 16.4033 20.0293 16.833 20.2148C17.2627 20.4004 17.7607 20.3125 18.1025 19.9902L25.1338 13.3496Z" fill="#FAFAFA"/>
</g>
<defs>
<clipPath id="clip0_1185_338">
<rect width="25" height="25" fill="white" transform="translate(0.5)"/>
</clipPath>
</defs>
</svg>
