<svg width="46" height="40" viewBox="0 0 46 40" fill="none" xmlns="http://www.w3.org/2000/svg">
<path d="M11.625 1.71093C12.0625 3.02343 11.3516 4.4375 10.0469 4.875L8 5.55468V15C8 19.1406 11.3594 22.5 15.5 22.5C19.6406 22.5 23 19.1406 23 15V5.55468L20.9609 4.875C19.6484 4.4375 18.9453 3.02343 19.3828 1.71093C19.8203 0.398434 21.2344 -0.304691 22.5469 0.132809L24.5859 0.812497C26.625 1.49218 28 3.39843 28 5.55468V15C28 21.0312 23.7344 26.0625 18.0547 27.2422C18.5469 31.6094 22.25 35 26.75 35C31.5859 35 35.5 31.0859 35.5 26.25V20.7266C33.2891 19.7656 31.75 17.5625 31.75 15C31.75 11.5469 34.5469 8.75 38 8.75C41.4531 8.75 44.25 11.5469 44.25 15C44.25 17.5625 42.7109 19.7656 40.5 20.7266V26.25C40.5 33.8437 34.3438 40 26.75 40C19.4922 40 13.5547 34.3828 13.0391 27.2578C7.3125 26.1094 3 21.0625 3 15V5.55468C3 3.40625 4.375 1.49218 6.42188 0.812497L8.46094 0.132809C9.77344 -0.304691 11.1875 0.406247 11.625 1.71093ZM38 17.5C39.3828 17.5 40.5 16.3828 40.5 15C40.5 13.6172 39.3828 12.5 38 12.5C36.6172 12.5 35.5 13.6172 35.5 15C35.5 16.3828 36.6172 17.5 38 17.5Z" fill="black"/>
</svg>
