<svg width="51" height="29" viewBox="0 0 51 29" fill="none" xmlns="http://www.w3.org/2000/svg">
<path d="M47.8581 13.8152C47.8581 10.4504 45.1482 7.71908 41.81 7.71908C38.4718 7.71908 35.762 10.4504 35.762 13.8152C35.762 17.1799 38.4718 19.9113 41.81 19.9113C45.1561 19.9113 47.8581 17.1799 47.8581 13.8152Z" fill="#4D4E50"/>
<path d="M40.4041 28.0104L41.1031 23.371H41.1267L40.4355 22.0964H43.1846L42.4934 23.371H42.517L43.216 28.0104H44.0565L45.3603 21.1067C45.2347 21.0988 45.109 21.0909 44.9755 21.0909H38.6446C38.5111 21.0909 38.3854 21.0988 38.2598 21.1067L39.5636 28.0104H40.4041Z" fill="white"/>
<path d="M15.2301 13.8152C15.2301 10.4504 12.5203 7.71908 9.18208 7.71908C5.84387 7.71908 3.13403 10.4504 3.13403 13.8152C3.13403 17.1799 5.84387 19.9113 9.18208 19.9113C12.5203 19.9113 15.2301 17.1799 15.2301 13.8152Z" fill="#4D4E50"/>
<path d="M0 26.2132V28.9921H12.0647C12.0882 27.662 12.426 26.4032 12.9837 25.279V28.9921H38.0163V25.2394C38.5819 26.3716 38.9275 27.6462 38.951 28.9921H50.9921V26.2132C50.9921 23.0464 48.4473 20.4813 45.3054 20.4813H38.3069C37.7179 20.4813 37.1602 20.5842 36.6261 20.7505C35.2279 18.7237 32.903 17.3937 30.2638 17.3937H20.7283C18.0892 17.3937 15.7642 18.7237 14.3661 20.7505C13.832 20.5842 13.2743 20.4813 12.6852 20.4813H5.67889C2.54489 20.4813 0 23.0543 0 26.2132ZM38.6447 21.0909H44.9834C45.1169 21.0909 45.2426 21.0988 45.3682 21.1067L44.0644 28.0104H43.2239L42.5249 23.371H42.5013L43.1925 22.0964H40.4434L41.1346 23.371H41.111L40.412 28.0104H39.5715L38.2677 21.1067C38.3855 21.0988 38.5112 21.0909 38.6447 21.0909ZM21.176 18.225H29.8161C29.9889 18.225 30.1696 18.2408 30.3424 18.2487L28.5672 27.6541H27.4205H23.5717H22.4249L20.6498 18.2487C20.8304 18.2329 21.0032 18.225 21.176 18.225ZM6.01663 21.0909H12.3553C12.4888 21.0909 12.6145 21.0988 12.7402 21.1067L11.4363 28.0104H10.5959L9.89681 23.371H9.87325L10.5645 22.0964H7.81534L8.49869 23.371H8.47513L7.77607 28.0104H6.93562L5.63176 21.1067C5.75743 21.0988 5.88311 21.0909 6.01663 21.0909Z" fill="#4D4E50"/>
<path d="M7.76829 28.0104L8.46735 23.371H8.49092L7.80756 22.0964H10.5567L9.86547 23.371H9.88904L10.5881 28.0104H11.4285L12.7324 21.1067C12.6067 21.0988 12.4732 21.0909 12.3475 21.0909H6.01671C5.88318 21.0909 5.75751 21.0988 5.63184 21.1067L6.9357 28.0104H7.76829Z" fill="white"/>
<path d="M33.7434 8.30494C33.7434 3.72099 30.0517 0 25.5039 0C20.9482 0 17.2644 3.72099 17.2644 8.30494C17.2644 12.8968 20.9561 16.6099 25.5039 16.6099C30.0517 16.6178 33.7434 12.8968 33.7434 8.30494Z" fill="#4D4E50"/>
<path d="M23.5717 27.6541L24.5221 21.3284H24.5535L23.6188 19.5946H27.3654L26.4229 21.3284H26.4543L27.4047 27.6541H28.5515L30.3266 18.2487C30.1538 18.2329 29.981 18.225 29.8004 18.225H21.1603C20.9796 18.225 20.8068 18.2408 20.634 18.2487L22.4092 27.6541H23.5717Z" fill="white"/>
<path d="M26.4701 21.3284H26.4387L27.3734 19.5946H23.6268L24.5615 21.3284H24.53L23.5718 27.6541H27.4284L26.4701 21.3284Z" fill="#D6A068"/>
</svg>
