<svg width="22" height="25" viewBox="0 0 22 25" fill="none" xmlns="http://www.w3.org/2000/svg">
<g clip-path="url(#clip0_1236_1312)">
<path d="M6.60156 0.864258C6.86523 0.332031 7.40723 0 7.99805 0H13.877C14.4678 0 15.0098 0.332031 15.2734 0.864258L15.625 1.5625H20.3125C21.1768 1.5625 21.875 2.26074 21.875 3.125C21.875 3.98926 21.1768 4.6875 20.3125 4.6875H1.5625C0.698242 4.6875 0 3.98926 0 3.125C0 2.26074 0.698242 1.5625 1.5625 1.5625H6.25L6.60156 0.864258ZM1.5625 6.25H20.3125V21.875C20.3125 23.5986 18.9111 25 17.1875 25H4.6875C2.96387 25 1.5625 23.5986 1.5625 21.875V6.25ZM6.25 9.375C5.82031 9.375 5.46875 9.72656 5.46875 10.1562V21.0938C5.46875 21.5234 5.82031 21.875 6.25 21.875C6.67969 21.875 7.03125 21.5234 7.03125 21.0938V10.1562C7.03125 9.72656 6.67969 9.375 6.25 9.375ZM10.9375 9.375C10.5078 9.375 10.1562 9.72656 10.1562 10.1562V21.0938C10.1562 21.5234 10.5078 21.875 10.9375 21.875C11.3672 21.875 11.7188 21.5234 11.7188 21.0938V10.1562C11.7188 9.72656 11.3672 9.375 10.9375 9.375ZM15.625 9.375C15.1953 9.375 14.8438 9.72656 14.8438 10.1562V21.0938C14.8438 21.5234 15.1953 21.875 15.625 21.875C16.0547 21.875 16.4062 21.5234 16.4062 21.0938V10.1562C16.4062 9.72656 16.0547 9.375 15.625 9.375Z" fill="black"/>
</g>
<defs>
<clipPath id="clip0_1236_1312">
<rect width="21.875" height="25" fill="white"/>
</clipPath>
</defs>
</svg>
