<svg width="27" height="30" viewBox="0 0 27 30" fill="none" xmlns="http://www.w3.org/2000/svg">
<g clip-path="url(#clip0_1232_788)">
<path d="M23.0684 5.68945C20.6133 3.22852 17.3438 1.875 13.8691 1.875C6.69727 1.875 0.861328 7.71094 0.861328 14.8828C0.861328 17.1738 1.45898 19.4121 2.5957 21.3867L0.75 28.125L7.64648 26.3145C9.54492 27.3516 11.6836 27.8965 13.8633 27.8965H13.8691C21.0352 27.8965 27 22.0605 27 14.8887C27 11.4141 25.5234 8.15039 23.0684 5.68945ZM13.8691 25.7051C11.9238 25.7051 10.0195 25.1836 8.36133 24.1992L7.96875 23.9648L3.87891 25.0371L4.96875 21.0469L4.71094 20.6367C3.62695 18.9141 3.05859 16.9277 3.05859 14.8828C3.05859 8.92383 7.91016 4.07227 13.875 4.07227C16.7637 4.07227 19.4766 5.19727 21.5156 7.24219C23.5547 9.28711 24.8086 12 24.8027 14.8887C24.8027 20.8535 19.8281 25.7051 13.8691 25.7051ZM19.7988 17.6074C19.4766 17.4434 17.877 16.6582 17.5781 16.5527C17.2793 16.4414 17.0625 16.3887 16.8457 16.7168C16.6289 17.0449 16.0078 17.7715 15.8145 17.9941C15.627 18.2109 15.4336 18.2402 15.1113 18.0762C13.2012 17.1211 11.9473 16.3711 10.6875 14.209C10.3535 13.6348 11.0215 13.6758 11.6426 12.4336C11.748 12.2168 11.6953 12.0293 11.6133 11.8652C11.5312 11.7012 10.8809 10.1016 10.6113 9.45117C10.3477 8.81836 10.0781 8.90625 9.87891 8.89453C9.69141 8.88281 9.47461 8.88281 9.25781 8.88281C9.04102 8.88281 8.68945 8.96484 8.39062 9.28711C8.0918 9.61523 7.25391 10.4004 7.25391 12C7.25391 13.5996 8.41992 15.1465 8.57813 15.3633C8.74219 15.5801 10.8691 18.8613 14.1328 20.2734C16.1953 21.1641 17.0039 21.2402 18.0352 21.0879C18.6621 20.9941 19.957 20.3027 20.2266 19.541C20.4961 18.7793 20.4961 18.1289 20.4141 17.9941C20.3379 17.8477 20.1211 17.7656 19.7988 17.6074Z" fill="black"/>
</g>
<defs>
<clipPath id="clip0_1232_788">
<rect width="26.25" height="30" fill="white" transform="translate(0.75)"/>
</clipPath>
</defs>
</svg>
